<?xml version="1.0" encoding="utf-8"?>
<!-- Generator: Adobe Illustrator 20.1.0, SVG Export Plug-In . SVG Version: 6.00 Build 0)  -->
<svg version="1.1" id="_x31_" xmlns="http://www.w3.org/2000/svg" xmlns:xlink="http://www.w3.org/1999/xlink" x="0px" y="0px"
	 viewBox="0 0 322 480" style="enable-background:new 0 0 322 480;" xml:space="preserve">
<style type="text/css">
	.st0{fill:#C7DDE4;}
	.st1{display:none;}
	.st2{display:inline;}
	.st3{fill:#2BB7B8;}
	.st4{display:inline;fill:#2BB7B8;}
</style>
<g>
	<polygon class="st0" points="31.2,316.1 18.6,316.2 16.9,69.5 29.2,71.2 	"/>
	
		<rect x="22" y="300.9" transform="matrix(1 -3.551224e-03 3.551224e-03 1 -1.0944 0.3535)" class="st0" width="154" height="14.9"/>
	<polygon class="st0" points="35.3,447.1 25,447.1 34.3,309.4 44.6,309.3 	"/>
	<polygon class="st0" points="164.3,446.6 174.6,446.6 164.2,308.9 153.9,308.9 	"/>
</g>
<g id="_x33_0" class="st1">
	<g class="st2">
		<path class="st3" d="M124.4,109.4c6.7,13.1,9.8,28,9.4,42.7c-0.4,12.2-6.1,22.5-11.6,33c-6.1,11.9-20.4,36.1-14.9,46.9
			c2.3,4.5,30.2,8.9,26.6,12.9c-1,1.1-7.2-7-8.7-7c-10.4,1.3-20.8,2.7-31.2,3.9c-16.4,2.1-8.2,32.3-24.5,34.4
			c-0.1,0-10.7,8.6-10.8,8.6c-5.5-13.7-23.1-65-24.4-79.9c-2.9-33.2-2.5-68.9,17.7-95.4c6.8-8.9,13.5-13.1,22.2-20.2
			c4.8-3.9,21.3-9.1,26.5-12.4c7-4.5,11.8-10.2,14.1-18.1c1.4-4.9,1.5-10.2,3.5-14.9c4.7-10.8,14.3-21.8,26.6-23.2
			c5.5-0.7,11.1,0.7,16.1,3.2c4.9,2.5,9.4,6.1,13.2,10c7.4,7.5,10.6,17,9.7,27.5C182.8,75.3,173.6,86,164,95.3
			c-3.9,3.8-7.2,8.1-11.3,11.7c-1.3,1.2-2.9,2.1-4.7,2.3c-5.1,0.5-7-4.7-10.4-7.2c-8.7-6.1-12.7,2.2-13.6,4.6
			c-0.2,0.4-0.2,0.8-0.1,1.2C124,108.5,124.2,108.8,124.4,109.4C124.4,109.3,124.4,109.4,124.4,109.4z"/>
		<path class="st3" d="M51.6,204.1c-0.9,3.6,1.8,32.5,1.6,35.2c-1.8,25.8,3.5,53.5,18,59.5s139.5-6.5,139.5-6.5
			c-3.2,23.4-2.8,49.1,3.8,71.8c2.4,8.1,3.5,16.5,4,24.9c0.4,6.1,0.6,12.2,0.2,18.2c-0.3,5.1-0.5,12.1-2.8,16.7
			c-1,2-8.7,21.7,9.3,22c15.2,0.3,57.4,0.1,70.2,0c2.7,0,4-3.5,1.8-5.2c-3.7-2.9-12.1-7.1-30.3-12.8c-6.9-2.2-14.1-5-18.4-10.9
			c-5.7-7.8-2.6-20.1-2.1-29.1c0.5-11.2,1.1-22.3,1.6-33.5c1-20.2,2-40.8,3-61.1c0.5-9.7,2.2-20.3,1.3-29.9
			c-0.5-5.4-3.4-10.2-7.5-13.7c-11.2-9.6-28.3-11.7-42.4-12.4c-12.3-0.6-24.6-1.7-36.7-3.9c-6.1-1.1-12.2-2.5-18.2-4.2
			c-5.4-1.5-46-16.7-50.7-18.8"/>
	</g>
</g>
<g id="_x32_9" class="st1">
	<g class="st2">
		<path class="st3" d="M124.1,109.3c6.8,13.1,10,27.9,9.7,42.6c-0.3,12.2-6,22.5-11.4,33.1c-6,11.9-20.2,36.2-14.6,47
			c2.3,4.5,30.3,8.7,26.7,12.7c-1,1.1-7.2-7-8.7-6.9c-10.4,1.4-20.8,2.8-31.2,4.1c-16.4,2.2-8,32.3-24.3,34.5
			c-0.1,0-10.6,8.7-10.7,8.7c-5.6-13.7-23.5-64.9-24.9-79.7c-3.1-33.2-2.9-68.9,17.1-95.5c6.7-8.9,13.4-13.2,22.1-20.3
			c4.8-3.9,21.2-9.2,26.4-12.6c7-4.5,11.7-10.3,14-18.2c1.4-4.9,1.4-10.2,3.4-14.9c4.6-10.8,14.2-21.9,26.5-23.4
			c5.5-0.7,11.1,0.6,16.1,3.1c4.9,2.5,9.4,6,13.3,9.9c7.4,7.5,10.7,16.9,9.9,27.4c-1,13.9-10.1,24.7-19.7,34
			c-3.9,3.8-7.2,8.1-11.2,11.8c-1.3,1.2-2.9,2.1-4.7,2.3c-5.1,0.5-7-4.7-10.4-7.1c-8.7-6-12.7,2.3-13.6,4.7
			c-0.2,0.4-0.2,0.8-0.1,1.2C123.7,108.4,123.9,108.7,124.1,109.3C124.1,109.2,124.1,109.3,124.1,109.3z"/>
		<path class="st3" d="M51.6,204.1c-0.9,3.6,1.8,32.5,1.6,35.2c-1.8,25.8,3.5,53.5,18,59.5s139.5-6.5,139.5-6.5
			c-3.2,23.4-2.8,49.1,3.8,71.8c2.4,8.1,3.5,16.5,4,24.9c0.4,6.1,0.6,12.2,0.2,18.2c-0.3,5.1-0.5,12.1-2.8,16.7
			c-1,2-8.7,21.7,9.3,22c15.2,0.3,57.4,0.1,70.2,0c2.7,0,4-3.5,1.8-5.2c-3.7-2.9-12.1-7.1-30.3-12.8c-6.9-2.2-14.1-5-18.4-10.9
			c-5.7-7.8-2.6-20.1-2.1-29.1c0.5-11.2,1.1-22.3,1.6-33.5c1-20.2,2-40.8,3-61.1c0.5-9.7,2.2-20.3,1.3-29.9
			c-0.5-5.4-3.4-10.2-7.5-13.7c-11.2-9.6-28.3-11.7-42.4-12.4c-12.3-0.6-24.6-1.7-36.7-3.9c-6.1-1.1-12.2-2.5-18.2-4.2
			c-5.4-1.5-46-16.7-50.7-18.8"/>
	</g>
</g>
<g id="_x32_8" class="st1">
	<g class="st2">
		<path class="st3" d="M121.8,108.5c7.2,12.8,11,27.5,11,42.3c0.1,12.2-5.3,22.7-10.3,33.5c-5.6,12.1-20.7,36.2-14.8,46.8
			c2.5,4.4,32,7.4,28.5,11.4c-1,1.1-7.2-5.8-8.7-5.6c-10.3,1.7-20.7,3.4-31,5.2c-16.3,2.7,11.5,27.5-4.8,30.2c-0.1,0-36.6,4-36.7,4
			c-6-13.5-17.8-54-19.6-68.7c-4.2-33.1-5-69.1,14-96.3c6.4-9.1,13.8-14.7,22.3-22c4.7-4.1,19.9-8.6,25-12.1
			c6.8-4.7,11.3-10.7,13.3-18.6c1.3-4.9,1-10.2,2.9-15c4.2-10.9,13.5-22.4,25.7-24.3c5.5-0.9,11.1,0.3,16.2,2.6
			c5,2.3,9.6,5.7,13.6,9.5c7.6,7.2,11.3,16.5,10.8,27c-0.6,13.9-9.3,25-18.6,34.6c-3.7,3.9-7,8.3-10.8,12.2
			c-1.2,1.3-2.8,2.2-4.6,2.4c-5,0.7-7.1-4.5-10.6-6.7c-8.9-5.7-12.6,2.8-13.4,5.1c-0.1,0.4-0.2,0.8-0.1,1.2
			C121.3,107.6,121.6,107.9,121.8,108.5C121.7,108.5,121.8,108.5,121.8,108.5z"/>
		<path class="st3" d="M48.7,204.1c-0.9,3.6,3.8,32.5,3.6,35.2c-1.8,25.8,3.5,53.5,18,59.5s139.5-6.5,139.5-6.5
			c-3.2,23.4-2.8,49.1,3.8,71.8c2.4,8.1,3.5,16.5,4,24.9c0.4,6.1,0.6,12.2,0.2,18.2c-0.3,5.1-0.5,12.1-2.8,16.7
			c-1,2-8.7,21.7,9.3,22c15.2,0.3,57.4,0.1,70.2,0c2.7,0,4-3.5,1.8-5.2c-3.7-2.9-12.1-7.1-30.3-12.8c-6.9-2.2-14.1-5-18.4-10.9
			c-5.7-7.8-2.6-20.1-2.1-29.1c0.5-11.2,1.1-22.3,1.6-33.5c1-20.2,2-40.8,3-61.1c0.5-9.7,2.2-20.3,1.3-29.9
			c-0.5-5.4-3.4-10.2-7.5-13.7c-11.2-9.6-28.3-11.7-42.4-12.4c-12.3-0.6-24.6-1.7-36.7-3.9c-6.1-1.1-12.2-2.5-18.2-4.2
			c-5.4-1.5-44.9-14.3-49.9-16.6"/>
	</g>
</g>
<g id="_x32_7" class="st1">
	<g class="st2">
		<path class="st3" d="M121.7,108.4c7.4,12.7,11.4,27.4,11.7,42.1c0.2,12.2-5,22.8-9.8,33.6c-5.4,12.2-20.5,36.2-14.4,46.7
			c2.5,4.4,32.3,8.2,28.8,12.3c-1,1.1-7.2-6.7-8.6-6.4c-10.3,1.9-20.6,3.7-31,5.6c-16.2,3-10.2,37.4-26.5,40.3c-0.1,0-17-7.6-17-7.7
			c-6.2-13.4-16-51.5-18.1-66.2c-4.7-33-5-66.2,13.7-93.6c6.3-9.2,13.6-17.9,21.9-25.3c4.6-4.1,18.9-8.7,23.9-12.3
			c6.8-4.8,11.1-10.9,13-18.8c1.2-5,0.9-10.2,2.7-15.1c4.1-11,13.2-22.5,25.4-24.7c5.5-1,11.1,0.1,16.2,2.3c5,2.2,9.7,5.5,13.7,9.3
			c7.7,7.1,11.5,16.4,11.2,26.9c-0.4,13.9-9,25.1-18.1,34.9c-3.7,3.9-6.8,8.4-10.6,12.3c-1.2,1.3-2.8,2.2-4.5,2.5
			c-5,0.7-7.2-4.4-10.7-6.6c-9-5.6-12.5,2.9-13.3,5.3c-0.1,0.4-0.2,0.8-0.1,1.2C121.2,107.6,121.5,107.8,121.7,108.4L121.7,108.4z"
			/>
		<path class="st3" d="M48.2,204.1c-0.9,3.6,3.8,32.5,3.6,35.2c-1.8,25.8,3.5,53.5,18,59.5s139.5-6.5,139.5-6.5
			c-3.2,23.4-2.8,49.1,3.8,71.8c2.4,8.1,3.5,16.5,4,24.9c0.4,6.1,0.6,12.2,0.2,18.2c-0.3,5.1-0.5,12.1-2.8,16.7
			c-1,2-8.7,21.7,9.3,22c15.2,0.3,57.4,0.1,70.2,0c2.7,0,4-3.5,1.8-5.2c-3.7-2.9-12.1-7.1-30.3-12.8c-6.9-2.2-14.1-5-18.4-10.9
			c-5.7-7.8-2.6-20.1-2.1-29.1c0.5-11.2,1.1-22.3,1.6-33.5c1-20.2,2-40.8,3-61.1c0.5-9.7,2.2-20.3,1.3-29.9
			c-0.5-5.4-3.4-10.2-7.5-13.7c-11.2-9.6-28.3-11.7-42.4-12.4c-12.3-0.6-24.6-1.7-36.7-3.9c-6.1-1.1-12.2-2.5-18.2-4.2
			c-5.4-1.5-38.8-11-43.6-14"/>
	</g>
</g>
<g id="_x32_6" class="st1">
	<g class="st2">
		<path class="st3" d="M122.1,108.3c7.7,12.6,12,27.1,12.6,41.8c0.5,12.2-4.4,22.9-9,33.9c-5.1,12.3-20.1,36.2-13.8,46.6
			c2.6,4.3,32.8,7.9,29.4,12.1c-0.9,1.2-7.1-6.5-8.6-6.2c-10.3,2.1-20.6,4.2-30.8,6.3c-16.2,3.3-34.7,18.9-50.8,22.2
			c-0.1,0,2.7,12,2.7,12c-6.5-13.3-11.8-51.8-14.2-66.4c-5.4-32.9-5.5-66.3,12.5-94.1c6.1-9.4,13.2-18.2,21.3-25.8
			c4.5-4.2,17.7-8.9,22.6-12.6c6.7-4.9,10.8-11.1,12.5-19.1c1.1-5,0.7-10.2,2.3-15.1c3.9-11.3,12.8-23,24.9-25.4
			c5.4-1.1,11.1-0.1,16.3,2c5.1,2.1,9.8,5.3,13.9,8.9c7.8,6.9,11.8,16.1,11.8,26.6c-0.1,13.9-8.4,25.3-17.3,35.3
			c-3.6,4-6.6,8.6-10.3,12.5c-1.2,1.3-2.7,2.3-4.5,2.6c-5,0.8-7.3-4.2-10.9-6.3c-9.1-5.3-12.5,3.2-13.2,5.6c-0.1,0.4-0.1,0.8,0,1.2
			C121.6,107.4,121.9,107.7,122.1,108.3C122.1,108.2,122.1,108.3,122.1,108.3z"/>
		<path class="st3" d="M45.7,204.1c-0.9,3.6,3.8,32.5,3.6,35.2c-1.8,25.8,3.5,53.5,18,59.5s139.5-6.5,139.5-6.5
			c-3.2,23.4-2.8,49.1,3.8,71.8c2.4,8.1,3.5,16.5,4,24.9c0.4,6.1,0.6,12.2,0.2,18.2c-0.3,5.1-0.5,12.1-2.8,16.7
			c-1,2-8.7,21.7,9.3,22c15.2,0.3,57.4,0.1,70.2,0c2.7,0,4-3.5,1.8-5.2c-3.7-2.9-12.1-7.1-30.3-12.8c-6.9-2.2-14.1-5-18.4-10.9
			c-5.7-7.8-2.6-20.1-2.1-29.1c0.5-11.2,1.1-22.3,1.6-33.5c1-20.2,2-40.8,3-61.1c0.5-9.7,2.2-20.3,1.3-29.9
			c-0.5-5.4-3.4-10.2-7.5-13.7c-11.2-9.6-28.3-11.7-42.4-12.4c-12.3-0.6-24.6-1.7-36.7-3.9c-6.1-1.1-12.2-2.5-18.2-4.2
			c-5.4-1.5-27-8.1-33.2-10.4"/>
	</g>
</g>
<g id="_x32_5" class="st1">
	<g class="st2">
		<path class="st3" d="M122.6,108.3c7.7,12.6,12,27.1,12.6,41.8c0.5,12.2-4.4,22.9-9,33.9c-5.1,12.3-20.1,36.2-13.8,46.6
			c2.6,4.3,32.8,7.9,29.4,12.1c-0.9,1.2-7.1-6.5-8.6-6.2c-10.3,2.1-20.6,4.2-30.8,6.3c-16.2,3.3-32.3,6.6-48.5,9.9
			c-0.1,0,1.7,28,1.7,28c-6.5-13.3-13.2-55.5-15.6-70.1c-5.4-32.9-5.5-66.3,12.5-94.1c6.1-9.4,13.2-18.2,21.3-25.8
			c4.5-4.2,17.7-8.9,22.6-12.6c6.7-4.9,10.8-11.1,12.5-19.1c1.1-5,0.7-10.2,2.3-15.1c4-11.3,12.9-23,25-25.4
			c5.4-1.1,11.1-0.1,16.3,2c5.1,2.1,9.8,5.3,13.9,8.9c7.9,6.9,11.9,16.1,11.8,26.6c-0.1,13.9-8.4,25.3-17.3,35.3
			c-3.6,4-6.6,8.6-10.3,12.5c-1.2,1.3-2.7,2.3-4.5,2.6c-5,0.8-7.3-4.2-10.9-6.3c-9.1-5.3-12.5,3.2-13.2,5.6c-0.1,0.4-0.1,0.8,0,1.2
			C122.1,107.4,122.4,107.7,122.6,108.3C122.6,108.2,122.6,108.3,122.6,108.3z"/>
		<path class="st3" d="M45.2,204.1c-0.9,3.6,3.8,32.5,3.6,35.2c-1.8,25.8,3.5,53.5,18,59.5s139.5-6.5,139.5-6.5
			c-3.2,23.4-2.8,49.1,3.8,71.8c2.4,8.1,3.5,16.5,4,24.9c0.4,6.1,0.6,12.2,0.2,18.2c-0.3,5.1-0.5,12.1-2.8,16.7
			c-1,2-8.7,21.7,9.3,22c15.2,0.3,57.4,0.1,70.2,0c2.7,0,4-3.5,1.8-5.2c-3.7-2.9-12.1-7.1-30.3-12.8c-6.9-2.2-14.1-5-18.4-10.9
			c-5.7-7.8-2.6-20.1-2.1-29.1c0.5-11.2,1.1-22.3,1.6-33.5c1-20.2,2-40.8,3-61.1c0.5-9.7,2.2-20.3,1.3-29.9
			c-0.5-5.4-3.4-10.2-7.5-13.7c-11.2-9.6-28.3-11.7-42.4-12.4c-12.3-0.6-24.6-1.7-36.7-3.9c-6.1-1.1-12.2-2.5-18.2-4.2
			c-5.4-1.5-29.5-10.1-34.4-13.1"/>
	</g>
</g>
<g id="_x32_4" class="st1">
	<g class="st2">
		<path class="st3" d="M120.5,108.2c8.1,12.3,12.8,26.8,13.8,41.4c0.9,12.2-3.8,23-8.1,34.1c-4.8,12.4-19.6,36.2-13,46.4
			c2.8,4.2,33.3,7.5,30.1,11.8c-0.9,1.2-7.1-6.3-8.5-6c-10.2,2.4-20.4,4.8-30.6,7.2c-16.1,3.8-32.1,7.5-48.2,11.3
			c-0.1,0,0.7,18.6,0.7,18.5c-6.9-13.1-12.9-45.7-15.7-60.2c-6.4-32.7-8.4-66.3,8.8-94.7c5.8-9.5,12.6-18.6,20.6-26.4
			c4.4-4.4,18.5-9.2,23.3-13c6.5-5.1,10.4-11.4,11.9-19.5c0.9-5,0.4-10.2,1.9-15.2c3.5-11.2,12-23.2,24.1-25.9
			c5.4-1.2,11.1-0.5,16.3,1.5s9.9,5,14.2,8.5c8.1,6.7,12.3,15.7,12.6,26.3c0.3,13.9-7.6,25.5-16.2,35.8c-3.5,4.1-6.4,8.8-9.9,12.8
			c-1.2,1.3-2.7,2.4-4.4,2.7c-5,1-7.4-4-11-6c-9.3-5.1-12.4,3.6-13.1,6c-0.1,0.4-0.1,0.8,0,1.2C120,107.3,120.2,107.6,120.5,108.2
			C120.4,108.1,120.5,108.2,120.5,108.2z"/>
		<path class="st3" d="M45.6,203.2c-0.9,3.6,3.3,33.4,3.1,36.1c-1.8,25.8,3.5,53.5,18,59.5s139.5-6.5,139.5-6.5
			c-3.2,23.4-2.8,49.1,3.8,71.8c2.4,8.1,3.5,16.5,4,24.9c0.4,6.1,0.6,12.2,0.2,18.2c-0.3,5.1-0.5,12.1-2.8,16.7
			c-1,2-8.7,21.7,9.3,22c15.2,0.3,57.4,0.1,70.2,0c2.7,0,4-3.5,1.8-5.2c-3.7-2.9-12.1-7.1-30.3-12.8c-6.9-2.2-14.1-5-18.4-10.9
			c-5.7-7.8-2.6-20.1-2.1-29.1c0.5-11.2,1.1-22.3,1.6-33.5c1-20.2,2-40.8,3-61.1c0.5-9.7,2.2-20.3,1.3-29.9
			c-0.5-5.4-3.4-10.2-7.5-13.7c-11.2-9.6-28.3-11.7-42.4-12.4c-12.3-0.6-24.6-1.7-36.7-3.9c-6.1-1.1-12.2-2.5-18.2-4.2
			c-5.4-1.5-28.4-9.4-34-12.7"/>
	</g>
</g>
<g id="_x32_3" class="st1">
	<g class="st2">
		<path class="st3" d="M118.7,109.1c8.2,12.3,13,26.6,14.2,41.3c1,12.2-3.6,23-7.7,34.2c-4.7,12.5-19.5,36.2-12.8,46.3
			c2.8,4.2,33.5,7.4,30.3,11.7c-0.9,1.2-7.1-6.3-8.5-5.9c-10.2,2.5-20.4,5-30.6,7.5c-16,3.9-33.1,14.5-49.1,18.4
			c-0.1,0,5.8,20.7,5.8,20.7c-7-13-17.2-54.3-20.2-68.9c-6.7-32.6-9-66.3,7.9-94.8c5.7-9.6,12.5-18.7,20.3-26.6
			c4.4-4.4,18.4-9.3,23.2-13.2c6.5-5.2,10.3-11.5,11.7-19.6c0.9-5,0.3-10.3,1.8-15.2c3.4-11.2,11.8-23.3,23.8-26.2
			c5.4-1.3,11.1-0.6,16.3,1.3s10,4.9,14.3,8.4c8.1,6.6,12.5,15.6,12.8,26.2c0.5,13.9-7.4,25.6-15.9,35.9c-3.4,4.2-6.3,8.8-9.8,12.9
			c-1.1,1.3-2.7,2.4-4.4,2.7c-5,1-7.4-3.9-11.1-5.9c-9.3-5-12.3,3.7-13,6.1c-0.1,0.4-0.1,0.8,0,1.2
			C118.1,108.3,118.4,108.5,118.7,109.1C118.6,109.1,118.7,109.1,118.7,109.1z"/>
		<path class="st3" d="M47.3,202c-0.9,3.6,3.2,34.6,3,37.3c-1.8,25.8,3.5,53.5,18,59.5s139.5-6.5,139.5-6.5
			c-3.2,23.4-2.8,49.1,3.8,71.8c2.4,8.1,3.5,16.5,4,24.9c0.4,6.1,0.6,12.2,0.2,18.2c-0.3,5.1-0.5,12.1-2.8,16.7
			c-1,2-8.7,21.7,9.3,22c15.2,0.3,57.4,0.1,70.2,0c2.7,0,4-3.5,1.8-5.2c-3.7-2.9-12.1-7.1-30.3-12.8c-6.9-2.2-14.1-5-18.4-10.9
			c-5.7-7.8-2.6-20.1-2.1-29.1c0.5-11.2,1.1-22.3,1.6-33.5c1-20.2,2-40.8,3-61.1c0.5-9.7,2.2-20.3,1.3-29.9
			c-0.5-5.4-3.4-10.2-7.5-13.7c-11.2-9.6-28.3-11.7-42.4-12.4c-12.3-0.6-24.6-1.7-36.7-3.9c-6.1-1.1-12.2-2.5-18.2-4.2
			c-5.4-1.5-26.2-8.9-32.3-12.1"/>
	</g>
</g>
<g id="_x32_2" class="st1">
	<g class="st2">
		<path class="st3" d="M118.7,108.1c8.2,12.3,13,26.6,14.2,41.3c1,12.2-3.6,23-7.7,34.2c-4.7,12.5-19.5,36.2-12.8,46.3
			c2.8,4.2,33.5,10.4,30.3,14.7c-0.9,1.2-7.1-9.3-8.5-8.9c-10.2,2.5-20.4,5-30.6,7.5c-16,3.9-32,7.8-48.1,11.8
			c-0.1,0,1.7,14.3,1.7,14.3c-7-13-14.2-41.3-17.1-55.9c-6.7-32.6-9-66.3,7.9-94.8C53.7,109,60.5,99.9,68.3,92
			c4.4-4.4,18.4-9.3,23.2-13.2c6.5-5.2,10.3-11.5,11.7-19.6c0.9-5,0.3-10.3,1.8-15.2c3.4-11.2,11.8-23.3,23.8-26.2
			c5.4-1.3,11.1-0.6,16.3,1.3s10,4.9,14.3,8.4c8.1,6.6,12.5,15.6,12.8,26.2c0.5,13.9-7.4,25.6-15.9,35.9c-3.4,4.2-6.3,8.8-9.8,12.9
			c-1.1,1.3-2.7,2.4-4.4,2.7c-5,1-7.4-3.9-11.1-5.9c-9.3-5-12.3,3.7-13,6.1c-0.1,0.4-0.1,0.8,0,1.2
			C118.1,107.3,118.4,107.5,118.7,108.1C118.6,108.1,118.7,108.1,118.7,108.1z"/>
		<path class="st3" d="M47.3,202c-0.9,3.6,3.2,34.6,3,37.3c-1.8,25.8,3.5,53.5,18,59.5s139.5-6.5,139.5-6.5
			c-3.2,23.4-2.8,49.1,3.8,71.8c2.4,8.1,3.5,16.5,4,24.9c0.4,6.1,0.6,12.2,0.2,18.2c-0.3,5.1-0.5,12.1-2.8,16.7
			c-1,2-8.7,21.7,9.3,22c15.2,0.3,57.4,0.1,70.2,0c2.7,0,4-3.5,1.8-5.2c-3.7-2.9-12.1-7.1-30.3-12.8c-6.9-2.2-14.1-5-18.4-10.9
			c-5.7-7.8-2.6-20.1-2.1-29.1c0.5-11.2,1.1-22.3,1.6-33.5c1-20.2,2-40.8,3-61.1c0.5-9.7,2.2-20.3,1.3-29.9
			c-0.5-5.4-3.4-10.2-7.5-13.7c-11.2-9.6-28.3-11.7-42.4-12.4c-12.3-0.6-24.6-1.7-36.7-3.9c-6.1-1.1-12.2-2.5-18.2-4.2
			c-5.4-1.5-31.5-10-37.1-13"/>
	</g>
</g>
<g id="_x32_1" class="st1">
	<g class="st2">
		<path class="st3" d="M117,108.1c8.4,12.1,13.5,26.4,15,41c1.2,12.2-3.1,23.1-7.1,34.3c-4.4,12.6-19,36.4-12.1,46.4
			c2.9,4.2,33.9,10,30.8,14.3c-0.9,1.2-7.2-9.1-8.7-8.8c-10.1,2.7-20.3,5.4-30.4,8.1c-15.9,4.2-32,30.2-48,34.5c-0.1,0,1.4-6,1.3-6
			c-7.2-12.9-14.2-42.6-17.4-57.1c-7.3-32.5-10.3-66.3,6.1-95.1c5.5-9.7,12.1-18.9,19.8-27c4.3-4.5,18.3-9.5,23-13.4
			c6.4-5.3,10-11.7,11.3-19.8c0.8-5,0.1-10.3,1.5-15.2c3.2-11.3,11.4-23.5,23.3-26.6c5.4-1.4,11.1-0.8,16.3,1s10.1,4.7,14.4,8.1
			c8.3,6.5,12.8,15.4,13.3,25.9c0.7,13.9-6.9,25.7-15.2,36.2c-3.4,4.2-6.1,8.9-9.6,13.1c-1.1,1.4-2.6,2.4-4.3,2.8
			c-5,1.1-7.5-3.8-11.2-5.7c-9.4-4.8-12.3,3.9-12.9,6.4c-0.1,0.4-0.1,0.8,0,1.2C116.5,107.3,116.8,107.5,117,108.1L117,108.1z"/>
		<path class="st3" d="M47.3,202c-0.9,3.6,3.2,34.6,3,37.3c-1.8,25.8,3.5,53.5,18,59.5s139.5-6.5,139.5-6.5
			c-3.2,23.4-2.8,49.1,3.8,71.8c2.4,8.1,3.5,16.5,4,24.9c0.4,6.1,0.6,12.2,0.2,18.2c-0.3,5.1-0.5,12.1-2.8,16.7
			c-1,2-8.7,21.7,9.3,22c15.2,0.3,57.4,0.1,70.2,0c2.7,0,4-3.5,1.8-5.2c-3.7-2.9-12.1-7.1-30.3-12.8c-6.9-2.2-14.1-5-18.4-10.9
			c-5.7-7.8-2.6-20.1-2.1-29.1c0.5-11.2,1.1-22.3,1.6-33.5c1-20.2,2-40.8,3-61.1c0.5-9.7,2.2-20.3,1.3-29.9
			c-0.5-5.4-3.4-10.2-7.5-13.7c-11.2-9.6-28.3-11.7-42.4-12.4c-12.3-0.6-24.6-1.7-36.7-3.9c-6.1-1.1-12.2-2.5-18.2-4.2
			c-5.4-1.5-30.7-8.8-35.6-11.7"/>
	</g>
</g>
<g id="_x32_0" class="st1">
	<g class="st2">
		<path class="st3" d="M115.4,108.1c8.8,11.8,14.3,25.9,16.2,40.5c1.6,12.1-2.4,23.2-6,34.5c-4,12.7-18.2,36.6-10.9,46.4
			c3,4.1,34.5,9.2,31.5,13.7c-0.8,1.2-7.5-8.9-9-8.5c-10.1,3-20.1,6-30.2,9c-15.8,4.7-31.6,9.4-47.4,14.1c-0.1,0,0.2,15,0.2,15
			c-7.6-12.7-14-41.4-17.7-55.7c-8.3-32.3-12.3-69.2,3.2-98.6c5.2-9.9,11.5-16.3,19-24.6c4.1-4.6,18-9.8,22.7-13.9
			c6.2-5.5,9.6-12,10.6-20.1c0.6-5.1-0.2-10.3,1-15.3c2.8-11.4,10.6-23.9,22.5-27.3c5.3-1.6,11.1-1.1,16.4,0.5s10.2,4.4,14.7,7.7
			c8.5,6.2,13.2,15,14.1,25.5c1.2,13.9-6.1,25.9-14.1,36.7c-3.2,4.3-5.9,9.1-9.2,13.4c-1.1,1.4-2.5,2.5-4.2,3
			c-4.9,1.3-7.6-3.6-11.4-5.3c-9.5-4.5-12.1,4.3-12.7,6.8c-0.1,0.4-0.1,0.8,0.1,1.2C114.8,107.3,115.1,107.6,115.4,108.1
			L115.4,108.1z"/>
		<path class="st3" d="M46.3,202c-0.9,3.6,3.2,34.6,3,37.3c-1.8,25.8,3.5,53.5,18,59.5s139.5-6.5,139.5-6.5
			c-3.2,23.4-2.8,49.1,3.8,71.8c2.4,8.1,3.5,16.5,4,24.9c0.4,6.1,0.6,12.2,0.2,18.2c-0.3,5.1-0.5,12.1-2.8,16.7
			c-1,2-8.7,21.7,9.3,22c15.2,0.3,57.4,0.1,70.2,0c2.7,0,4-3.5,1.8-5.2c-3.7-2.9-12.1-7.1-30.3-12.8c-6.9-2.2-14.1-5-18.4-10.9
			c-5.7-7.8-2.6-20.1-2.1-29.1c0.5-11.2,1.1-22.3,1.6-33.5c1-20.2,2-40.8,3-61.1c0.5-9.7,2.2-20.3,1.3-29.9
			c-0.5-5.4-3.4-10.2-7.5-13.7c-11.2-9.6-28.3-11.7-42.4-12.4c-12.3-0.6-24.6-1.7-36.7-3.9c-6.1-1.1-12.2-2.5-18.2-4.2
			c-5.4-1.5-27.5-8.6-33.6-12.3"/>
	</g>
</g>
<g id="_x31_9" class="st1">
	<g class="st2">
		<path class="st3" d="M112.8,108.2c9.1,11.6,14.9,25.6,17.2,40.1c1.9,12.1-1.9,23.2-5.2,34.7c-3.7,12.8-17.5,36.8-10.1,46.5
			c3.1,4,35,8.6,32.1,13.2c-0.8,1.3-7.7-8.7-9.2-8.3c-10,3.2-20,6.5-29.9,9.7c-15.7,5.1-31.4,10.2-47.1,15.3c-0.1,0,1.1,16,1.1,16
			c-7.9-12.5-15.5-42.1-19.6-56.3c-9-32.1-10.9-70.1,3.9-99.8c5-10,12-15.6,19.3-24.1c4-4.7,13.9-10,18.4-14.2
			c6.1-5.7,9.3-12.2,10.1-20.4c0.5-5.1-0.5-10.2,0.6-15.3c2.6-11.5,10-24.1,21.8-27.9c5.3-1.7,11-1.4,16.4,0.1
			c5.3,1.5,10.3,4.2,14.8,7.3c8.6,6,13.6,14.7,14.7,25.1c1.5,13.8-5.5,26.1-13.2,37c-3.1,4.4-5.6,9.3-8.8,13.6
			c-1,1.4-2.5,2.6-4.2,3.1c-4.9,1.4-7.7-3.4-11.5-5.1c-9.6-4.3-12,4.6-12.5,7.1c-0.1,0.4,0,0.8,0.1,1.2
			C112.2,107.3,112.4,107.6,112.8,108.2C112.7,108.1,112.8,108.2,112.8,108.2z"/>
		<path class="st3" d="M46.8,202c-0.9,3.6,3.2,34.6,3,37.3c-1.8,25.8,3.5,53.5,18,59.5s139.5-6.5,139.5-6.5
			c-3.2,23.4-2.8,49.1,3.8,71.8c2.4,8.1,3.5,16.5,4,24.9c0.4,6.1,0.6,12.2,0.2,18.2c-0.3,5.1-0.5,12.1-2.8,16.7
			c-1,2-8.7,21.7,9.3,22c15.2,0.3,57.4,0.1,70.2,0c2.7,0,4-3.5,1.8-5.2c-3.7-2.9-12.1-7.1-30.3-12.8c-6.9-2.2-14.1-5-18.4-10.9
			c-5.7-7.8-2.6-20.1-2.1-29.1c0.5-11.2,1.1-22.3,1.6-33.5c1-20.2,2-40.8,3-61.1c0.5-9.7,2.2-20.3,1.3-29.9
			c-0.5-5.4-3.4-10.2-7.5-13.7c-11.2-9.6-28.3-11.7-42.4-12.4c-12.3-0.6-24.6-1.7-36.7-3.9c-6.1-1.1-12.2-2.5-18.2-4.2
			c-5.4-1.5-29.6-8.7-35.1-12.9"/>
	</g>
</g>
<g id="_x31_8" class="st1">
	<g class="st2">
		<path class="st3" d="M112.1,108.2c9.4,11.4,15.7,25.1,18.4,39.6c2.2,12-1.2,23.3-4.2,34.8c-3.3,12.9-16.7,37-9,46.4
			c3.2,3.9,35.5,7.9,32.7,12.5c-0.8,1.3-8-8.5-9.4-8c-9.9,3.5-19.8,7.1-29.6,10.6c-15.5,5.6-31.1,11.1-46.6,16.7c-0.1,0-0.1,0-0.1,0
			c-8.3-12.3-15.1-25.6-19.5-39.7c-10-31.8-12.9-69,1-99.1c4.7-10.1,11.5-16.9,18.5-25.6c3.9-4.8,13.6-10.2,18-14.6
			c5.9-5.8,8.8-12.5,9.4-20.7c0.4-5.1-0.8-10.2,0.2-15.3c2.2-11.5,9.3-24.4,21-28.5c5.2-1.8,11-1.7,16.4-0.3
			c5.3,1.4,10.4,3.9,15,6.9c8.8,5.7,14,14.3,15.4,24.7c1.9,13.8-4.7,26.2-12.1,37.4c-3,4.5-5.4,9.4-8.4,13.9c-1,1.5-2.4,2.6-4.1,3.2
			c-4.8,1.5-7.8-3.1-11.7-4.7c-9.8-4-11.9,5-12.3,7.4c-0.1,0.4,0,0.8,0.2,1.2C111.5,107.4,111.7,107.7,112.1,108.2
			C112,108.2,112.1,108.2,112.1,108.2z"/>
		<path class="st3" d="M45.3,202c-0.9,3.6,3.2,34.6,3,37.3c-1.8,25.8,3.5,53.5,18,59.5s139.5-6.5,139.5-6.5
			c-3.2,23.4-2.8,49.1,3.8,71.8c2.4,8.1,3.5,16.5,4,24.9c0.4,6.1,0.6,12.2,0.2,18.2c-0.3,5.1-0.5,12.1-2.8,16.7
			c-1,2-8.7,21.7,9.3,22c15.2,0.3,57.4,0.1,70.2,0c2.7,0,4-3.5,1.8-5.2c-3.7-2.9-12.1-7.1-30.3-12.8c-6.9-2.2-14.1-5-18.4-10.9
			c-5.7-7.8-2.6-20.1-2.1-29.1c0.5-11.2,1.1-22.3,1.6-33.5c1-20.2,2-40.8,3-61.1c0.5-9.7,2.2-20.3,1.3-29.9
			c-0.5-5.4-3.4-10.2-7.5-13.7c-11.2-9.6-28.3-11.7-42.4-12.4c-12.3-0.6-24.6-1.7-36.7-3.9c-6.1-1.1-12.2-2.5-18.2-4.2
			c-5.4-1.5-25.2-7.1-29.1-10.1"/>
	</g>
</g>
<g id="_x31_7">
	<g>
		<path class="st3" d="M108.2,108.4c9.9,10.9,16.8,24.4,20.1,38.8c2.8,11.9-0.2,23.3-2.6,34.9c-2.8,13-15.6,37.3-7.4,46.4
			c3.4,3.8,36.3,6.7,33.7,11.5c-0.7,1.3-8.4-8.1-9.7-7.6c-9.7,4-19.4,7.9-29.1,11.9c-15.3,6.2-30.6,12.4-45.8,18.7h-0.1
			c-8.8-11.9-16.2-24.9-21.3-38.8c-11.4-31.3-13.7-65.6-1.1-96.3c4.2-10.3,9.6-20.3,16.2-29.3c3.7-5,12.3-10.6,16.4-15.1
			c5.6-6.1,8.2-12.9,8.4-21c0.1-5.1-1.2-10.2-0.5-15.3c1.7-11.6,8.3-24.8,19.7-29.4c5.1-2.1,10.9-2.2,16.3-1.1s10.6,3.4,15.3,6.2
			c9,5.4,14.6,13.6,16.5,24c2.5,13.7-3.6,26.4-10.5,37.8c-2.8,4.6-5,9.7-7.8,14.2c-0.9,1.5-2.3,2.7-3.9,3.4
			c-4.8,1.8-7.9-2.8-11.8-4.2c-9.9-3.6-11.7,5.5-12,8c0,0.4,0,0.8,0.2,1.2C107.6,107.6,107.9,107.9,108.2,108.4L108.2,108.4z"/>
		<path class="st3" d="M45.3,202c-0.9,3.6,3.2,34.6,3,37.3c-1.8,25.8,3.5,53.5,18,59.5s139.5-6.5,139.5-6.5
			c-3.2,23.4-2.8,49.1,3.8,71.8c2.4,8.1,3.5,16.5,4,24.9c0.4,6.1,0.6,12.2,0.2,18.2c-0.3,5.1-0.5,12.1-2.8,16.7
			c-1,2-8.7,21.7,9.3,22c15.2,0.3,57.4,0.1,70.2,0c2.7,0,4-3.5,1.8-5.2c-3.7-2.9-12.1-7.1-30.3-12.8c-6.9-2.2-14.1-5-18.4-10.9
			c-5.7-7.8-2.6-20.1-2.1-29.1c0.5-11.2,1.1-22.3,1.6-33.5c1-20.2,2-40.8,3-61.1c0.5-9.7,2.2-20.3,1.3-29.9
			c-0.5-5.4-3.4-10.2-7.5-13.7c-11.2-9.6-28.3-11.7-42.4-12.4c-12.3-0.6-24.6-1.7-36.7-3.9c-6.1-1.1-12.5-2.1-18.5-3.8
			c-5.4-1.5-23-5-28-9"/>
	</g>
</g>
<g id="_x31_6" class="st1">
	<path class="st4" d="M105.7,108.6c10.3,10.6,17.7,23.8,21.5,38c3.2,11.8,0.7,23.3-1.3,35c-2.3,13.1-14.5,37.5-6,46.2
		c3.5,3.6,36.9,5.7,34.5,10.6c-0.7,1.3-8.7,2.2-10,2.8c-9.6,4.3-19.1-1.4-28.7,3c-15,6.8-30.1,13.6-45.1,20.4h-0.1
		c-9.3-11.5-17.1-24.3-22.7-38c-12.5-30.9-16.2-65.2-4.8-96.3c3.8-10.6,8.8-20.7,15-30c3.5-5.1,11.9-10.9,15.9-15.6
		c5.4-6.3,7.6-13.2,7.5-21.3c0-5.1-1.6-10.1-1.1-15.3C81.6,36.4,87.6,23,98.9,18c5.1-2.3,10.8-2.6,16.3-1.7c5.4,0.9,10.7,3,15.6,5.6
		c9.2,5,15.1,13.1,17.4,23.4c3,13.6-2.6,26.5-9,38.2c-2.6,4.7-4.6,9.8-7.3,14.5c-0.9,1.5-2.2,2.8-3.8,3.5c-4.7,1.9-8-2.5-12-3.8
		c-10.1-3.2-11.5,5.9-11.6,8.4c0,0.4,0,0.8,0.3,1.2C105,107.9,105.3,108.1,105.7,108.6C105.6,108.6,105.7,108.6,105.7,108.6z"/>
	<path class="st4" d="M45.5,201.1c-0.9,3.6,2.9,35.5,2.7,38.2c-1.8,25.8,3.5,53.5,18,59.5s139.5-6.5,139.5-6.5
		c-3.2,23.4-2.8,49.1,3.8,71.8c2.4,8.1,3.5,16.5,4,24.9c0.4,6.1,0.6,12.2,0.2,18.2c-0.3,5.1-0.5,12.1-2.8,16.7c-1,2-8.7,21.7,9.3,22
		c15.2,0.3,57.4,0.1,70.2,0c2.7,0,4-3.5,1.8-5.2c-3.7-2.9-12.1-7.1-30.3-12.8c-6.9-2.2-14.1-5-18.4-10.9c-5.7-7.8-2.6-20.1-2.1-29.1
		c0.5-11.2,1.1-22.3,1.6-33.5c1-20.2,2-40.8,3-61.1c0.5-9.7,2.2-20.3,1.3-29.9c-0.5-5.4-3.4-10.2-7.5-13.7
		c-11.2-9.6-28.3-11.7-42.4-12.4c-12.3-0.6-24.6-1.7-36.7-3.9c-6.1-1.1-13.1-1.1-19.1-2.8c-5.4-1.5-20-5-27.7-9.7"/>
</g>
<g id="_x31_5" class="st1">
	<path class="st4" d="M103.9,108.8c10.6,10.2,18.4,23.2,22.7,37.3c3.6,11.7,1.4,23.3-0.2,35c-1.9,13.2-13.4,37.9-4.6,46.4
		c3.6,3.5,37,4.6,34.8,9.5c-0.6,1.4-8.6,2.5-9.9,3.1c-9.4,4.6-19.2-0.8-28.6,3.8c-14.8,7.3-29.6,14.5-44.4,21.8h-0.1
		C64,254.5,55.7,242,49.7,228.4c-13.5-30.5-16.2-64.8-5.8-96.3c3.5-10.6,8.2-20.9,14.2-30.4c3.3-5.2,9.6-11.1,13.5-16
		c5.2-6.5,7.1-13.4,6.8-21.6C78.2,59,76.5,54,76.9,48.9c0.9-11.7,6.5-25.3,17.7-30.7c5-2.4,10.7-2.9,16.2-2.2
		c5.5,0.8,10.8,2.7,15.7,5.2c9.4,4.7,15.5,12.6,18.1,22.8c3.4,13.5-1.8,26.6-7.9,38.5c-2.5,4.8-4.3,10-6.8,14.7
		c-0.8,1.6-2.1,2.9-3.7,3.6c-4.6,2.1-8.1-2.3-12.1-3.4c-10.2-2.9-11.3,6.3-11.4,8.8c0,0.4,0.1,0.8,0.3,1.2
		C103.2,108.1,103.5,108.3,103.9,108.8L103.9,108.8z"/>
	<path class="st4" d="M45.1,199.1c-0.9,3.6,2.9,37.5,2.7,40.2c-1.8,25.8,3.5,53.5,18,59.5s139.5-6.5,139.5-6.5
		c-3.2,23.4-2.8,49.1,3.8,71.8c2.4,8.1,3.5,16.5,4,24.9c0.4,6.1,0.6,12.2,0.2,18.2c-0.3,5.1-0.5,12.1-2.8,16.7c-1,2-8.7,21.7,9.3,22
		c15.2,0.3,57.4,0.1,70.2,0c2.7,0,4-3.5,1.8-5.2c-3.7-2.9-12.1-7.1-30.3-12.8c-6.9-2.2-14.1-5-18.4-10.9c-5.7-7.8-2.6-20.1-2.1-29.1
		c0.5-11.2,1.1-22.3,1.6-33.5c1-20.2,2-40.8,3-61.1c0.5-9.7,2.2-20.3,1.3-29.9c-0.5-5.4-3.4-10.2-7.5-13.7
		c-11.2-9.6-28.3-11.7-42.4-12.4c-12.3-0.6-25-1.2-37.1-3.3c-6.1-1.1-12.5-0.9-18.5-2.7c-5.4-1.5-18.6-3.7-25.7-6.5"/>
</g>
<g id="_x31_4" class="st1">
	<path class="st4" d="M102.7,109.1c23,21.2,31.3,51.9,20.6,81.8c-3.1,8.6-6.7,16.8-8.4,25.8c-0.6,3.1-0.7,6.7,1.1,9.3
		c2.4,3.4,7.1,4,11.2,4.6c11.3,1.6,22.4,4.9,32.8,9.9c-10.8-5.2-33,1.7-43.3,5.7C103,251.5,90,260.1,77,267h-0.1
		c-10-11-18.5-23.2-24.9-36.6c-14.4-30.1-18.1-64.4-8.5-96.1c3.2-10.7,9.6-21.2,15.3-30.8c2.7-4.6,6.6-9.3,11.1-15.3
		c5-6.6,6.7-14.6,6.1-22.8c-0.3-5.1-2.2-10-2-15.2c0.6-11.7,5.8-25.5,16.8-31.2c4.9-2.6,10.7-3.2,16.2-2.6
		c5.5,0.6,10.9,2.4,15.9,4.7c9.5,4.5,15.9,12.1,18.8,22.3c3.8,13.4-1,26.6-6.7,38.7c-2.3,4.9-4,10.1-6.4,14.9c-0.8,1.6-2,3-3.6,3.7
		c-4.6,2.2-8.2-2-12.2-3c-10.2-2.6-11.1,6.6-11.1,9.1c0,0.4,0.1,0.8,0.3,1.2C102,108.4,102.3,108.6,102.7,109.1
		C102.7,109,102.7,109.1,102.7,109.1z"/>
	<path class="st4" d="M46.1,199.1c-0.9,3.6,1.9,37.5,1.7,40.2c-1.8,25.8,3.5,53.5,18,59.5s139.5-6.5,139.5-6.5
		c-3.2,23.4-2.8,49.1,3.8,71.8c2.4,8.1,3.5,16.5,4,24.9c0.4,6.1,0.6,12.2,0.2,18.2c-0.3,5.1-0.5,12.1-2.8,16.7c-1,2-8.7,21.7,9.3,22
		c15.2,0.3,57.4,0.1,70.2,0c2.7,0,4-3.5,1.8-5.2c-3.7-2.9-12.1-7.1-30.3-12.8c-6.9-2.2-14.1-5-18.4-10.9c-5.7-7.8-2.6-20.1-2.1-29.1
		c0.5-11.2,1.1-22.3,1.6-33.5c1-20.2,2-40.8,3-61.1c0.5-9.7,2.2-20.3,1.3-29.9c-0.5-5.4-3.4-10.2-7.5-13.7
		c-11.2-9.6-28.3-11.7-42.4-12.4c-12.3-0.6-24.6-1.7-36.7-3.9c-6.1-1.1-13.1-1.4-19.1-3.1c-5.4-1.5-18.3-2.7-26-6.7"/>
</g>
<g id="_x31_3" class="st1">
	<path class="st4" d="M102.5,109.1c11,9.8,18.2,22.6,23,36.5c5.1,14.7,2.9,31.1-1.7,45.6c-2.6,8.2-15,28-6.2,35.9
		c3.8,3.4,44.2,9.3,42.1,14.2c-0.6,1.4-8.5-3.2-9.8-2.5c-9.2,5-19.2-0.1-28.4,4.9c-14.5,7.8-29.1,15.6-43.6,23.4h-0.1
		c-10-10.9-18.7-23.1-25.2-36.4c-14.6-30-17.5-64.2-8.2-96.1c3.1-10.7,7.4-21.2,13.1-30.8c3.1-5.4,8.3-10.4,12-15.4
		c5-6.6,6.6-14.6,6-22.8c-0.4-5.1-2.3-10-2.1-15.1C73.9,38.8,79,25,89.9,19.2c4.9-2.6,10.6-3.3,16.1-2.8c5.5,0.6,10.9,2.3,15.9,4.6
		c9.5,4.4,16,12,18.9,22.1c3.9,13.4-0.8,26.6-6.5,38.7c-2.3,4.9-3.9,10.1-6.3,15c-0.8,1.6-2,3-3.6,3.7c-4.6,2.2-8.2-2-12.2-2.9
		c-10.3-2.5-11,6.7-11.1,9.2c0,0.4,0.1,0.8,0.3,1.2C101.7,108.4,102.1,108.6,102.5,109.1C102.4,109.1,102.5,109.1,102.5,109.1z"/>
	<path class="st4" d="M46.1,198.1c-0.9,3.6,1.9,38.5,1.7,41.2c-1.8,25.8,3.5,53.5,18,59.5s139.5-6.5,139.5-6.5
		c-3.2,23.4-2.8,49.1,3.8,71.8c2.4,8.1,3.5,16.5,4,24.9c0.4,6.1,0.6,12.2,0.2,18.2c-0.3,5.1-0.5,12.1-2.8,16.7c-1,2-8.7,21.7,9.3,22
		c15.2,0.3,57.4,0.1,70.2,0c2.7,0,4-3.5,1.8-5.2c-3.7-2.9-12.1-7.1-30.3-12.8c-6.9-2.2-14.1-5-18.4-10.9c-5.7-7.8-2.6-20.1-2.1-29.1
		c0.5-11.2,1.1-22.3,1.6-33.5c1-20.2,2-40.8,3-61.1c0.5-9.7,2.2-20.3,1.3-29.9c-0.5-5.4-3.4-10.2-7.5-13.7
		c-11.2-9.6-28.3-11.7-42.4-12.4c-12.3-0.6-24.6-1.7-36.7-3.9c-6.1-1.1-12.2-2.5-18.2-4.2c-5.4-1.5-22.9-3.6-27.9-8.3"/>
</g>
<g id="_x31_2" class="st1">
	<path class="st4" d="M103,109.1c22.4,20.4,32.8,51.2,22.6,80.5c-3.1,8.9-8,17.4-9.6,26.7c-0.6,3.2-0.7,6.8,1.2,9.5
		c2.4,3.4,7,4.1,11.2,4.8c11.3,1.8,22.4,5.3,32.7,10.3c-25-12.1-62.3,15.3-82.6,26.2h-0.1c-10-10.9-18.7-23.1-25.2-36.4
		c-14.6-30-17.5-64.2-8.2-96.1c3.1-10.7,8.4-21.2,14.1-30.8c3.1-5.4,7.3-10.4,11-15.4c5-6.6,6.6-14.6,6-22.8
		c-0.4-5.1-2.3-10-2.1-15.1c0.3-11.8,5.4-25.5,16.3-31.3c4.9-2.6,10.6-3.3,16.1-2.8c5.5,0.6,10.9,2.3,15.9,4.6
		c9.5,4.4,16,12,18.9,22.1c3.9,13.4-0.8,26.6-6.5,38.7c-2.3,4.9-3.9,10.1-6.3,15c-0.8,1.6-2,3-3.6,3.7c-4.6,2.2-8.2-2-12.2-2.9
		c-10.3-2.5-11,6.7-11.1,9.2c0,0.4,0.1,0.8,0.3,1.2C102.3,108.4,102.6,108.6,103,109.1C102.9,109.1,103,109.1,103,109.1z"/>
	<path class="st4" d="M45.6,198.1c-0.9,3.6,1.9,38.5,1.7,41.2c-1.8,25.8,3.5,53.5,18,59.5s139.5-6.5,139.5-6.5
		c-3.2,23.4-2.8,49.1,3.8,71.8c2.4,8.1,3.5,16.5,4,24.9c0.4,6.1,0.6,12.2,0.2,18.2c-0.3,5.1-0.5,12.1-2.8,16.7c-1,2-8.7,21.7,9.3,22
		c15.2,0.3,57.4,0.1,70.2,0c2.7,0,4-3.5,1.8-5.2c-3.7-2.9-12.1-7.1-30.3-12.8c-6.9-2.2-14.1-5-18.4-10.9c-5.7-7.8-2.6-20.1-2.1-29.1
		c0.5-11.2,1.1-22.3,1.6-33.5c1-20.2,2-40.8,3-61.1c0.5-9.7,2.2-20.3,1.3-29.9c-0.5-5.4-3.4-10.2-7.5-13.7
		c-11.2-9.6-28.3-11.7-42.4-12.4c-12.3-0.6-24.6-1.7-36.7-3.9c-6.1-1.1-12.2-2.5-18.2-4.2c-5.4-1.5-22.3-2.9-27.1-8.6"/>
</g>
<g id="_x31_1" class="st1">
	<path class="st4" d="M102.6,109.2c15,14.5,25.6,32.8,26.6,54.5c0.5,11.2-1.6,21.9-5.5,32.4c-2.9,7.7-13.1,23.8-5,31
		c3.8,3.4,44.2,8.9,42.2,14c-0.6,1.4-8.5-3.2-9.8-2.5c-9.2,5-19.2,0.1-28.4,5.1c-14.5,7.9-29,15.8-43.4,23.7h-0.1
		c-10.1-10.8-18.9-23-25.5-36.2c-14.8-29.8-18.1-64.1-9-96c3-10.7,8.2-21.3,13.8-31c3.1-5.4,7.2-9.5,10.9-14.4
		c4.9-6.7,6.5-15.7,5.8-23.8c-0.4-5.1-2.4-10-2.2-15.1c0.4-11.7,5.4-25.6,16.3-31.4c4.9-2.6,10.6-3.4,16.1-2.9s10.9,2.2,15.9,4.5
		c9.6,4.3,16.1,11.9,19.1,22c4,13.3-0.6,26.7-6.2,38.8c-2.3,4.9-3.8,10.2-6.2,15c-0.8,1.6-2,3-3.5,3.8c-4.5,2.3-8.2-1.9-12.2-2.8
		c-10.3-2.4-11,6.7-11,9.3c0,0.4,0.1,0.8,0.3,1.2C101.9,108.5,102.2,108.7,102.6,109.2L102.6,109.2z"/>
	<path class="st4" d="M45.6,191.1c-0.9,3.6,1.9,45.5,1.7,48.2c-1.8,25.8,3.5,53.5,18,59.5s139.5-6.5,139.5-6.5
		c-3.2,23.4-2.8,49.1,3.8,71.8c2.4,8.1,3.5,16.5,4,24.9c0.4,6.1,0.6,12.2,0.2,18.2c-0.3,5.1-0.5,12.1-2.8,16.7c-1,2-8.7,21.7,9.3,22
		c15.2,0.3,57.4,0.1,70.2,0c2.7,0,4-3.5,1.8-5.2c-3.7-2.9-12.1-7.1-30.3-12.8c-6.9-2.2-14.1-5-18.4-10.9c-5.7-7.8-2.6-20.1-2.1-29.1
		c0.5-11.2,1.1-22.3,1.6-33.5c1-20.2,2-40.8,3-61.1c0.5-9.7,2.2-20.3,1.3-29.9c-0.5-5.4-3.4-10.2-7.5-13.7
		c-11.2-9.6-28.3-11.7-42.4-12.4c-12.3-0.6-24.6-1.7-36.7-3.9c-6.1-1.1-12.2-2.5-18.2-4.2c-5.4-1.5-20.6-3.3-27.4-7.9"/>
</g>
<g id="_x31_0" class="st1">
	<path class="st4" d="M102.2,109.3c24.8,21.4,34.1,53.6,22.6,84.5c-2,5.5-4.7,10.8-6.3,16.4c-5.2,18.4,6.1,18.6,20.2,21.9
		c2.2,0.5,24.7,4.5,23.2,8.4c-0.5,1.4-8.5-3.1-9.8-2.3c-9.2,5.1-19.2,0.3-28.3,5.4c-14.4,8.1-28.8,16.1-43.2,24.2h-0.1
		c-10.2-10.7-19.2-22.7-25.9-35.9C39.4,202.2,35.8,168,44.5,136c2.9-10.8,8-21.3,13.5-31.1c3-5.4,7.1-9.6,10.7-14.6
		c4.8-6.7,6.3-15.8,5.5-23.9c-0.5-5.1-2.5-9.9-2.4-15.1c0.3-11.8,5.2-25.7,16-31.6c4.8-2.7,10.6-3.5,16.1-3.1
		c5.5,0.5,10.9,2.1,16,4.3c9.6,4.2,16.2,11.7,19.4,21.8c4.2,13.3-0.3,26.7-5.7,38.9c-2.2,4.9-3.7,10.2-6,15.1
		c-0.7,1.6-1.9,3-3.5,3.8c-4.5,2.3-8.2-1.8-12.3-2.7c-10.3-2.3-10.9,6.9-10.9,9.4c0,0.4,0.1,0.8,0.4,1.2
		C101.5,108.7,101.8,108.9,102.2,109.3L102.2,109.3z"/>
	<path class="st4" d="M45.6,191.1c-0.9,3.6,1.9,45.5,1.7,48.2c-1.8,25.8,3.5,53.5,18,59.5s139.5-6.5,139.5-6.5
		c-3.2,23.4-2.8,49.1,3.8,71.8c2.4,8.1,3.5,16.5,4,24.9c0.4,6.1,0.6,12.2,0.2,18.2c-0.3,5.1-0.5,12.1-2.8,16.7c-1,2-8.7,21.7,9.3,22
		c15.2,0.3,57.4,0.1,70.2,0c2.7,0,4-3.5,1.8-5.2c-3.7-2.9-12.1-7.1-30.3-12.8c-6.9-2.2-14.1-5-18.4-10.9c-5.7-7.8-2.6-20.1-2.1-29.1
		c0.5-11.2,1.1-22.3,1.6-33.5c1-20.2,2-40.8,3-61.1c0.5-9.7,2.2-20.3,1.3-29.9c-0.5-5.4-3.4-10.2-7.5-13.7
		c-11.2-9.6-28.3-11.7-42.4-12.4c-12.3-0.6-24.6-1.7-36.7-3.9c-6.1-1.1-12.2-2.5-18.2-4.2c-5.4-1.5-20-2.6-25.3-7.6"/>
</g>
<g id="_x39_" class="st1">
	<path class="st4" d="M102.2,109.3c16.5,14.2,26.8,34.8,27.2,56.6c0.2,10.8-2,21.5-6.2,31.5c-2.9,6.9-14.7,22.5-6.6,29.5
		c3.8,3.3,47.3,8.5,45.3,13.6c-0.5,1.4-8.5-3.1-9.8-2.3c-9.2,5.1-19.2,0.3-28.3,5.4c-14.4,8.1-28.8,16.1-43.2,24.2h-0.1
		c-10.2-10.7-19.2-22.7-25.9-35.9c-15.1-29.7-18.7-64-10.1-96c2.9-10.8,8-21.3,13.5-31.1c3-5.4,7.1-9.6,10.7-14.6
		c4.8-6.7,6.3-15.8,5.5-23.9c-0.5-5.1-2.5-9.9-2.4-15.1c0.3-11.7,5.1-25.6,15.9-31.6c4.8-2.7,10.6-3.5,16.1-3.1
		c5.5,0.5,10.9,2.1,16,4.3c9.7,4.3,16.2,11.8,19.4,21.8c4.2,13.3-0.3,26.7-5.7,38.9c-2.2,4.9-3.7,10.2-6,15.1
		c-0.7,1.6-1.9,3-3.5,3.8c-4.5,2.3-8.2-1.8-12.3-2.7c-10.3-2.3-10.9,6.9-10.9,9.4c0,0.4,0.1,0.8,0.4,1.2S101.8,108.9,102.2,109.3
		C102.1,109.3,102.2,109.3,102.2,109.3z"/>
	<path class="st4" d="M45.6,191.1c-0.9,3.6,1.9,45.5,1.7,48.2c-1.8,25.8,3.5,53.5,18,59.5s139.5-6.5,139.5-6.5
		c-3.2,23.4-2.8,49.1,3.8,71.8c2.4,8.1,3.5,16.5,4,24.9c0.4,6.1,0.6,12.2,0.2,18.2c-0.3,5.1-0.5,12.1-2.8,16.7c-1,2-8.7,21.7,9.3,22
		c15.2,0.3,57.4,0.1,70.2,0c2.7,0,4-3.5,1.8-5.2c-3.7-2.9-12.1-7.1-30.3-12.8c-6.9-2.2-14.1-5-18.4-10.9c-5.7-7.8-2.6-20.1-2.1-29.1
		c0.5-11.2,1.1-22.3,1.6-33.5c1-20.2,2-40.8,3-61.1c0.5-9.7,2.2-20.3,1.3-29.9c-0.5-5.4-3.4-10.2-7.5-13.7
		c-11.2-9.6-28.3-11.7-42.4-12.4c-12.3-0.6-24.6-1.7-36.7-3.9c-6.1-1.1-12.2-2.5-18.2-4.2c-5.4-1.5-27-4.3-29.9-9.9"/>
</g>
<g id="_x38_" class="st1">
	<path class="st4" d="M102,109.3c1.6,2.7,4.1,4.9,6.5,7.1c13.6,12.9,20.5,32.8,19.6,51.4c-0.8,16.4-24.9,51.5-5.5,60.8
		c3.6,1.7,42.2,6.8,40.5,11.3c-0.5,1.4-8.5-3-9.8-2.2c-9.1,5.2-19.2,0.5-28.2,5.8c-14.3,8.2-28.6,16.5-42.9,24.7h-0.1
		c-10.4-10.6-19.4-22.5-26.3-35.6c-15.5-29.5-19.6-63.7-11.3-95.8c2.8-10.8,7.7-21.4,13.1-31.2c3-5.5,7-9.6,10.5-14.7
		c4.7-6.8,6.1-15.8,5.2-24c-0.5-5.1-2.6-9.9-2.6-15.1c0.1-11.7,4.8-25.7,15.5-31.8c4.8-2.7,10.5-3.7,16-3.3c5.5,0.4,11,1.9,16,4.1
		c9.7,4.1,16.3,11.5,19.6,21.5c4.3,13.2,0,26.7-5.2,38.9c-2.1,5-3.6,10.2-5.8,15.2c-0.7,1.6-1.9,3-3.5,3.9
		c-4.3,2.3-27.3-10-22.4,6.5C101.2,107.7,101.5,108.5,102,109.3z"/>
	<path class="st4" d="M45.6,191.1c-0.9,3.6,1.9,45.5,1.7,48.2c-1.8,25.8,3.5,53.5,18,59.5s139.5-6.5,139.5-6.5
		c-3.2,23.4-2.8,49.1,3.8,71.8c2.4,8.1,3.5,16.5,4,24.9c0.4,6.1,0.6,12.2,0.2,18.2c-0.3,5.1-0.5,12.1-2.8,16.7c-1,2-8.7,21.7,9.3,22
		c15.2,0.3,57.4,0.1,70.2,0c2.7,0,4-3.5,1.8-5.2c-3.7-2.9-12.1-7.1-30.3-12.8c-6.9-2.2-14.1-5-18.4-10.9c-5.7-7.8-2.6-20.1-2.1-29.1
		c0.5-11.2,1.1-22.3,1.6-33.5c1-20.2,2-40.8,3-61.1c0.5-9.7,2.2-20.3,1.3-29.9c-0.5-5.4-3.4-10.2-7.5-13.7
		c-11.2-9.6-28.3-11.7-42.4-12.4c-12.3-0.6-24.6-1.7-36.7-3.9c-6.1-1.1-12.2-2.5-18.2-4.2c-5.4-1.5-27-5.3-29.9-10.9"/>
</g>
<g id="_x37_" class="st1">
	<path class="st4" d="M100.9,109.6c16.9,15,27.3,34.7,27.5,58.5c0.1,11.7-3.2,21.2-7.6,31.8c-2.6,6.2-8.8,20.6-1.6,26.4
		c3.9,3.2,47.6,7.3,45.8,12.4c-0.5,1.4-8.6-2.8-9.9-2c-9,5.4-19.1,0.9-28.1,6.4c-14.1,8.5-28.2,17.1-42.3,25.6h-0.1
		c-10.6-10.3-19.9-22.1-27.1-35c-16.1-29.2-20.9-63.3-13.3-95.5c2.6-10.9,7.3-21.6,12.4-31.5c2.8-5.5,6.8-9.8,10.2-14.9
		c4.6-6.9,5.8-16,4.7-24.1c-0.7-5.1-2.8-9.9-2.9-15c-0.1-11.9,4.3-25.9,14.9-32.2c4.8-2.8,10.4-3.9,16-3.6c5.5,0.3,11,1.7,16.1,3.8
		c9.7,3.9,16.6,11.2,20.1,21.1c4.6,13.1,0.6,26.7-4.4,39c-2,5-3.4,10.3-5.5,15.3c-0.7,1.6-1.8,3.1-3.4,3.9
		c-4.4,2.5-8.3-1.5-12.4-2.3c-10.4-2-10.7,7.2-10.6,9.8c0,0.4,0.1,0.8,0.4,1.2C100.1,109,100.4,109.2,100.9,109.6
		C100.8,109.6,100.9,109.6,100.9,109.6z"/>
	<path class="st4" d="M45.6,177c-0.9,3.6,1.9,59.5,1.7,62.3c-1.8,25.8,3.5,53.5,18,59.5s139.5-6.5,139.5-6.5
		c-3.2,23.4-2.8,49.1,3.8,71.8c2.4,8.1,3.5,16.5,4,24.9c0.4,6.1,0.6,12.2,0.2,18.2c-0.3,5.1-0.5,12.1-2.8,16.7c-1,2-8.7,21.7,9.3,22
		c15.2,0.3,57.4,0.1,70.2,0c2.7,0,4-3.5,1.8-5.2c-3.7-2.9-12.1-7.1-30.3-12.8c-6.9-2.2-14.1-5-18.4-10.9c-5.7-7.8-2.6-20.1-2.1-29.1
		c0.5-11.2,1.1-22.3,1.6-33.5c1-20.2,2-40.8,3-61.1c0.5-9.7,2.2-20.3,1.3-29.9c-0.5-5.4-3.4-10.2-7.5-13.7
		c-11.2-9.6-28.3-11.7-42.4-12.4c-12.3-0.6-24.6-1.7-36.7-3.9c-6.1-1.1-12.2-2.5-18.2-4.2c-5.4-1.5-26.9-3.7-29.7-9.3"/>
</g>
<g id="_x36_" class="st1">
	<path class="st4" d="M100.9,109.7c11.5,9.3,18.4,21.5,23.9,35.2c5.9,14.7,4.9,33.4-0.9,48c-2.9,7.2-13.3,26.7-4.7,33.6
		c3.9,3.2,47.6,7.3,45.8,12.4c-0.5,1.4-8.6-2.8-9.9-2c-9,5.4-19.1,0.9-28.1,6.4c-14.1,8.5-28.2,17.1-42.3,25.6h-0.1
		c-10.6-10.3-19.9-22.1-27.1-35c-16.1-29.2-20.9-63.3-13.3-95.5c2.6-10.9,7.3-21.6,12.4-31.5c2.8-5.5,6.8-9.8,10.2-14.9
		c4.6-6.9,5.8-16,4.7-24.1c-0.7-5.1-2.8-9.9-2.9-15c-0.1-12,4.3-26,14.9-32.3c4.8-2.8,10.4-3.9,16-3.6c5.5,0.3,11,1.7,16.1,3.8
		c9.7,3.9,16.6,11.2,20.1,21.1c4.6,13.1,0.6,26.7-4.4,39c-2,5-3.4,10.3-5.5,15.3c-0.7,1.6-1.8,3.1-3.4,3.9
		c-4.4,2.5-8.3-1.5-12.4-2.3c-10.4-2-10.7,7.2-10.6,9.8c0,0.4,0.1,0.8,0.4,1.2C100.1,109.1,100.4,109.3,100.9,109.7
		C100.8,109.7,100.9,109.7,100.9,109.7z"/>
	<path class="st4" d="M45.6,177.1c-0.9,3.6,1.9,59.5,1.7,62.2c-1.8,25.8,3.5,53.5,18,59.5s139.5-6.5,139.5-6.5
		c-3.2,23.4-2.8,49.1,3.8,71.8c2.4,8.1,3.5,16.5,4,24.9c0.4,6.1,0.6,12.2,0.2,18.2c-0.3,5.1-0.5,12.1-2.8,16.7c-1,2-8.7,21.7,9.3,22
		c15.2,0.3,57.4,0.1,70.2,0c2.7,0,4-3.5,1.8-5.2c-3.7-2.9-12.1-7.1-30.3-12.8c-6.9-2.2-14.1-5-18.4-10.9c-5.7-7.8-2.6-20.1-2.1-29.1
		c0.5-11.2,1.1-22.3,1.6-33.5c1-20.2,2-40.8,3-61.1c0.5-9.7,2.2-20.3,1.3-29.9c-0.5-5.4-3.4-10.2-7.5-13.7
		c-11.2-9.6-28.3-11.7-42.4-12.4c-12.3-0.6-24.6-1.7-36.7-3.9c-6.1-1.1-12.2-2.5-18.2-4.2c-5.4-1.5-26.2-4-29.1-9.6"/>
</g>
<g id="_x35_" class="st1">
	<path class="st4" d="M99.3,110.2c19.2,15.3,30.1,36.6,29.8,61.7c-0.1,11.7-4.3,20.1-9.5,30.2c-2.7,5.2-9.4,18.8-2.5,24
		c4.1,3,52.8,5.5,51.2,10.6c-0.4,1.4-8.7-2.5-9.9-1.6c-8.8,5.8-19.1,1.7-27.9,7.4c-13.8,9.1-27.6,18.1-41.3,27.2h-0.1
		c-11-9.9-20.7-21.3-28.4-34c-17.2-28.5-23.3-62.5-16.9-95c2.1-11,6.5-21.8,11.2-31.9c2.6-5.6,6.4-10,9.7-15.3
		c4.3-7.1,5.1-16.2,3.8-24.2c-0.8-5-3.2-9.7-3.4-14.9c-0.6-11.7,3.3-25.9,13.6-32.6c4.6-3,10.3-4.3,15.8-4.2s11.1,1.3,16.2,3.1
		c9.9,3.5,17,10.5,20.9,20.3c5.1,12.9,1.6,26.6-2.9,39.2c-1.8,5.1-3,10.4-4.9,15.5c-0.6,1.7-1.7,3.1-3.2,4.1
		c-4.3,2.6-8.3-1.2-12.4-1.8c-10.4-1.6-10.4,7.6-10.2,10.1c0,0.4,0.2,0.8,0.4,1.2C98.6,109.6,98.9,109.8,99.3,110.2L99.3,110.2z"/>
	<path class="st4" d="M45.6,177.1c-0.9,3.6,1.9,59.5,1.7,62.2c-1.8,25.8,3.5,53.5,18,59.5s139.5-6.5,139.5-6.5
		c-3.2,23.4-2.8,49.1,3.8,71.8c2.4,8.1,3.5,16.5,4,24.9c0.4,6.1,0.6,12.2,0.2,18.2c-0.3,5.1-0.5,12.1-2.8,16.7c-1,2-8.7,21.7,9.3,22
		c15.2,0.3,57.4,0.1,70.2,0c2.7,0,4-3.5,1.8-5.2c-3.7-2.9-12.1-7.1-30.3-12.8c-6.9-2.2-14.1-5-18.4-10.9c-5.7-7.8-2.6-20.1-2.1-29.1
		c0.5-11.2,1.1-22.3,1.6-33.5c1-20.2,2-40.8,3-61.1c0.5-9.7,2.2-20.3,1.3-29.9c-0.5-5.4-3.4-10.2-7.5-13.7
		c-11.2-9.6-28.3-11.7-42.4-12.4c-12.3-0.6-24.6-1.7-36.7-3.9c-6.1-1.1-12.2-2.5-18.2-4.2c-5.4-1.5-27.5-4.7-30.4-10.3"/>
</g>
<g id="_x34_" class="st1">
	<path class="st4" d="M97.5,110.7c19.7,14.6,29.3,35.5,29.9,60.6c0.3,11.7-3.6,20.2-8.4,30.6c-2.5,5.3-6.8,19.2,0.3,24.1
		c4.2,2.9,53,13.6,51.5,18.9c-0.4,1.4-8.8-2.2-10-1.3c-8.6,6.1-19-7.7-27.6-1.6c-13.5,9.5-26.9,19.1-40.4,28.6h-0.1
		c-11.3-9.6-21.4-20.6-29.5-33C45,209.7,38.8,175.9,44,143.2c1.8-11,4.7-22,9.1-32.2c2.4-5.7,6.1-10.3,9.1-15.6
		c4.1-7.2,4.6-16.3,3-24.4c-1-5-3.5-9.6-4-14.8c-1-11.7,2.4-26,12.5-33.1c4.5-3.2,10.1-4.6,15.7-4.8c5.5-0.1,11.1,0.9,16.3,2.6
		c10,3.2,17.3,9.9,21.5,19.6c5.6,12.8,2.5,26.5-1.6,39.2c-1.7,5.1-2.6,10.5-4.4,15.6c-0.6,1.7-1.6,3.2-3.1,4.2
		c-4.2,2.8-8.4-0.9-12.5-1.4c-10.5-1.2-10.1,8-9.8,10.5c0,0.4,0.2,0.8,0.5,1.1C96.7,110.1,97,110.3,97.5,110.7
		C97.4,110.7,97.5,110.7,97.5,110.7z"/>
	<path class="st4" d="M45.6,177.1c-0.9,3.6,1.9,59.5,1.7,62.2c-1.8,25.8,3.5,53.5,18,59.5s139.5-6.5,139.5-6.5
		c-3.2,23.4-2.8,49.1,3.8,71.8c2.4,8.1,3.5,16.5,4,24.9c0.4,6.1,0.6,12.2,0.2,18.2c-0.3,5.1-0.5,12.1-2.8,16.7c-1,2-8.7,21.7,9.3,22
		c15.2,0.3,57.4,0.1,70.2,0c2.7,0,4-3.5,1.8-5.2c-3.7-2.9-12.1-7.1-30.3-12.8c-6.9-2.2-14.1-5-18.4-10.9c-5.7-7.8-2.6-20.1-2.1-29.1
		c0.5-11.2,1.1-22.3,1.6-33.5c1-20.2,2-40.8,3-61.1c0.5-9.7,2.2-20.3,1.3-29.9c-0.5-5.4-3.4-10.2-7.5-13.7
		c-11.2-9.6-28.3-11.7-42.4-12.4c-12.3-0.6-24.6-1.7-36.7-3.9c-6.1-1.1-13.2-1.8-19.1-3.5c-5.4-1.5-24-3.7-26.8-9.3"/>
</g>
<g id="_x33_" class="st1">
	<path class="st4" d="M98.7,110.7c19.6,14.7,31.1,35.8,31.5,60.8c0.2,11.7-3.7,20.2-8.6,30.5c-2.5,5.3-10.9,19-3.9,24
		c4.2,2.9,54.8,23.9,53.4,29.1c-0.4,1.4-8.8-2.3-10-1.4c-8.6,6-18.9-17.8-27.5-11.8c-13.6,9.4-27,18.9-40.6,28.3h-0.1
		c-11.2-9.6-21.4-20.6-29.4-33.1c-18-28-25.1-61.8-19.6-94.5c1.9-11,5.8-22,10.3-32.2c2.4-5.7,6.2-10.3,9.2-15.5
		c4.1-7.2,4.7-16.3,3.1-24.4c-1-5-3.4-9.6-3.9-14.8c-0.9-11.7,2.6-26,12.7-33c4.5-3.2,10.1-4.5,15.7-4.7c5.5-0.1,11.1,1,16.3,2.7
		c10,3.3,17.2,10,21.5,19.7c5.5,12.8,2.4,26.5-1.8,39.2c-1.7,5.1-2.7,10.5-4.5,15.6c-0.6,1.7-1.6,3.2-3.1,4.2
		c-4.2,2.8-8.4-1-12.5-1.5c-10.5-1.3-10.2,7.9-9.9,10.4c0,0.4,0.2,0.8,0.5,1.1C97.9,110.1,98.2,110.2,98.7,110.7
		C98.6,110.6,98.7,110.7,98.7,110.7z"/>
	<path class="st4" d="M45.1,177.1c-0.9,3.6,1.9,59.5,1.7,62.2c-1.8,25.8,3.5,53.5,18,59.5s139.5-6.5,139.5-6.5
		c-3.2,23.4-2.8,49.1,3.8,71.8c2.4,8.1,3.5,16.5,4,24.9c0.4,6.1,0.6,12.2,0.2,18.2c-0.3,5.1-0.5,12.1-2.8,16.7c-1,2-8.7,21.7,9.3,22
		c15.2,0.3,57.4,0.1,70.2,0c2.7,0,4-3.5,1.8-5.2c-3.7-2.9-12.1-7.1-30.3-12.8c-6.9-2.2-14.1-5-18.4-10.9c-5.7-7.8-2.6-20.1-2.1-29.1
		c0.5-11.2,1.1-22.3,1.6-33.5c1-20.2,2-40.8,3-61.1c0.5-9.7,2.2-20.3,1.3-29.9c-0.5-5.4-3.4-10.2-7.5-13.7
		c-11.2-9.6-28.3-11.7-42.4-12.4c-12.3-0.6-24.6-1.7-36.7-3.9c-6.1-1.1-12.2-2.5-18.2-4.2c-5.4-1.5-27.5-4.7-30.4-10.3"/>
</g>
<g id="_x32_" class="st1">
	<path class="st4" d="M98.5,110.8c19.7,14.6,31.3,35.6,31.9,60.6c0.3,11.7-3.6,20.2-8.4,30.6c-2.5,5.3-10.8,19.1-3.7,24
		c4.2,2.9,55,23.6,53.6,28.8c-0.4,1.4-8.8-2.2-10-1.3c-8.6,6.1-19-17.7-27.6-11.6c-13.5,9.5-26.9,19.1-40.4,28.6h-0.1
		C82.5,261,72.3,250,64.2,237.6C46,209.7,38.7,176,44,143.2c1.8-11,5.7-22,10.1-32.3c2.4-5.7,6.1-10.3,9.1-15.6
		c4.1-7.2,4.6-16.3,2.9-24.4c-1-5-3.5-9.6-4-14.8c-1-11.7,2.4-26,12.5-33.1c4.5-3.2,10.1-4.6,15.7-4.8c5.5-0.1,11.1,0.9,16.3,2.6
		c10,3.2,17.3,9.9,21.6,19.6c5.6,12.8,2.6,26.5-1.6,39.2c-1.7,5.1-2.6,10.5-4.4,15.6c-0.6,1.7-1.6,3.2-3.1,4.2
		c-4.2,2.8-8.4-0.9-12.5-1.4c-10.5-1.2-10.1,8-9.8,10.5c0,0.4,0.2,0.8,0.5,1.1C97.7,110.2,98,110.3,98.5,110.8
		C98.4,110.7,98.5,110.8,98.5,110.8z"/>
	<path class="st4" d="M45.1,177.1c-0.9,3.6,1.9,59.5,1.7,62.2c-1.8,25.8,3.5,53.5,18,59.5s139.5-6.5,139.5-6.5
		c-3.2,23.4-2.8,49.1,3.8,71.8c2.4,8.1,3.5,16.5,4,24.9c0.4,6.1,0.6,12.2,0.2,18.2c-0.3,5.1-0.5,12.1-2.8,16.7c-1,2-8.7,21.7,9.3,22
		c15.2,0.3,57.4,0.1,70.2,0c2.7,0,4-3.5,1.8-5.2c-3.7-2.9-12.1-7.1-30.3-12.8c-6.9-2.2-14.1-5-18.4-10.9c-5.7-7.8-2.6-20.1-2.1-29.1
		c0.5-11.2,1.1-22.3,1.6-33.5c1-20.2,2-40.8,3-61.1c0.5-9.7,2.2-20.3,1.3-29.9c-0.5-5.4-3.4-10.2-7.5-13.7
		c-11.2-9.6-28.3-11.7-42.4-12.4c-12.3-0.6-24.6-1.7-36.7-3.9c-6.1-1.1-12.2-2.5-18.2-4.2c-5.4-1.5-27.5-4.7-30.4-10.3"/>
</g>
<g id="_x31__1_" class="st1">
	<path class="st4" d="M96.3,112.1c20.6,13.2,31.6,33.4,33.9,58.4c1,11.6-3.3,22.4-7.4,33.1c-2.1,5.5-9.5,19.8-2.1,24.2
		c4.3,2.6,59.4,17.9,58.4,23.2c-0.3,1.5-8.9-1.6-10.1-0.6c-8.1,6.6-20.2-16.4-28.3-9.7c-12.8,10.4-25.6,20.9-38.4,31.3h-0.1
		c-11.9-8.8-22.8-19.1-31.7-30.9c-20-26.6-29.5-59.8-26.5-92.8c1-11.1,4.2-22.3,7.9-32.9c2-5.9,5.4-10.6,8.1-16.2
		c3.6-7.5,3.5-16.6,1.3-24.5c-1.4-4.9-4.2-9.4-4.9-14.5C54.6,48.6,57,34.1,66.6,26.3c4.3-3.5,9.8-5.3,15.3-5.8
		C87.4,20,93,20.7,98.4,22c10.2,2.5,18,8.7,22.8,18.1c6.4,12.4,4.3,26.3,1.1,39.3c-1.3,5.2-1.9,10.7-3.3,15.9
		c-0.5,1.7-1.4,3.3-2.8,4.4c-4.1,3.1-8.4-0.4-12.6-0.6c-10.5-0.5-9.6,8.6-9.1,11.1c0.1,0.4,0.3,0.8,0.6,1.1
		C95.5,111.5,95.8,111.6,96.3,112.1C96.3,112,96.3,112.1,96.3,112.1z"/>
	<path class="st4" d="M44.6,177.1c-0.9,3.6,1.9,59.5,1.7,62.2c-1.8,25.8,3.5,53.5,18,59.5s139.5-6.5,139.5-6.5
		c-3.2,23.4-2.8,49.1,3.8,71.8c2.4,8.1,3.5,16.5,4,24.9c0.4,6.1,0.6,12.2,0.2,18.2c-0.3,5.1-0.5,12.1-2.8,16.7c-1,2-8.7,21.7,9.3,22
		c15.2,0.3,57.4,0.1,70.2,0c2.7,0,4-3.5,1.8-5.2c-3.7-2.9-12.1-7.1-30.3-12.8c-6.9-2.2-14.1-5-18.4-10.9c-5.7-7.8-2.6-20.1-2.1-29.1
		c0.5-11.2,1.1-22.3,1.6-33.5c1-20.2,2-40.8,3-61.1c0.5-9.7,2.2-20.3,1.3-29.9c-0.5-5.4-3.4-10.2-7.5-13.7
		c-11.2-9.6-28.3-11.7-42.4-12.4c-12.3-0.6-24.6-1.7-36.7-3.9c-6.1-1.1-12.2-2.5-18.2-4.2c-5.4-1.5-27.5-4.7-30.4-10.3"/>
</g>
</svg>
