<?xml version="1.0" encoding="utf-8"?>
<!-- Generator: Adobe Illustrator 20.1.0, SVG Export Plug-In . SVG Version: 6.00 Build 0)  -->
<svg version="1.1" id="Layer_1" xmlns="http://www.w3.org/2000/svg" xmlns:xlink="http://www.w3.org/1999/xlink" x="0px" y="0px"
	 viewBox="0 0 299.5 295" style="enable-background:new 0 0 299.5 295;" xml:space="preserve">
<style type="text/css">
	.st0{fill:#DCE5E4;}
	.st1{clip-path:url(#SVGID_2_);}
	.st2{fill:#2BB7B8;}
</style>
<g>
	<circle class="st0" cx="143.8" cy="143.4" r="128.4"/>
	<g>
		<defs>
			<circle id="SVGID_1_" cx="143.8" cy="143.4" r="128.4"/>
		</defs>
		<clipPath id="SVGID_2_">
			<use xlink:href="#SVGID_1_"  style="overflow:visible;"/>
		</clipPath>
		<g class="st1">
			<g>
				<path class="st2" d="M110,261c-4-6.5-7.6-13.3-10.6-20.4c-12.9-30.7-14.8-65.2-3.7-96.4c3.7-10.5,10.6-20.6,16.8-30
					c2.9-4.4,7.1-9,11.9-14.7c5.3-6.3,7.4-14.2,7.3-22.4c-0.1-5.1-1.7-10.1-1.2-15.2c1.2-11.7,7.1-25.2,18.3-30.3
					c5-2.3,10.8-2.7,16.3-1.8c5.4,0.9,10.8,2.9,15.6,5.5c9.3,4.9,15.3,12.9,17.6,23.2c3.1,13.6-2.3,26.6-8.7,38.3
					c-2.6,4.8-4.5,9.9-7.1,14.6c-0.9,1.5-2.1,2.9-3.8,3.5c-4.7,2-8.1-2.4-12-3.6c-10.1-3.1-11.4,6-11.6,8.5c0,0.4,0.1,0.8,0.3,1.2
					c0.2,0.4,0.5,0.6,0.9,1.1c0,0,0,0,0,0c21.9,22.3,28.7,53.4,16.5,82.7c-3.5,8.5-6.6,16.7-9.6,25.3c-13.5,38-19.3,40.7-19.3,40.7"
					/>
			</g>
			<path class="st2" d="M158.7,233.4l-44.8,10.2c0,0-20,23.9-22.4,51.1c-0.6,24.5,20.5,88,22,110.1c0.4,5.2,3.1,10,7.4,12.9
				c5.8,4.1,12.9,7,16.1,6.6c9.7-1.1,17.1-53.1,20.9-96.8c1-11.9,3.5-23.5,6.8-35C173.2,263.6,158.7,233.4,158.7,233.4z"/>
		</g>
	</g>
</g>
</svg>
