<?xml version="1.0" encoding="utf-8"?>
<!-- Generator: Adobe Illustrator 20.1.0, SVG Export Plug-In . SVG Version: 6.00 Build 0)  -->
<svg version="1.1" id="Layer_1" xmlns="http://www.w3.org/2000/svg" xmlns:xlink="http://www.w3.org/1999/xlink" x="0px" y="0px"
	 viewBox="0 0 299.5 295" style="enable-background:new 0 0 299.5 295;" xml:space="preserve">
<style type="text/css">
	.st0{fill:#DCE5E4;}
	.st1{clip-path:url(#SVGID_2_);}
	.st2{fill:#FF0000;}
</style>
<g>
	<circle class="st0" cx="149.1" cy="148.9" r="128.4"/>
	<g>
		<defs>
			<circle id="SVGID_1_" cx="149.1" cy="148.9" r="128.4"/>
		</defs>
		<clipPath id="SVGID_2_">
			<use xlink:href="#SVGID_1_"  style="overflow:visible;"/>
		</clipPath>
		<g class="st1">
			<g>
				<path class="st2" d="M96.3,269.5c-2.9-10.9-8.9-28.7-13.6-38.9c-14.1-31.2-8.5-75.6,10.9-103.4c6.4-9.1,13.8-14.7,22.3-22
					c4.7-4.1,19.9-8.6,25-12.1c6.8-4.7,11.3-10.7,13.3-18.6c1.3-4.9,1-10.2,2.9-15c4.2-10.9,13.5-22.4,25.7-24.3
					c5.5-0.9,11.1,0.3,16.2,2.6c5,2.3,9.6,5.7,13.6,9.5c7.6,7.2,11.3,16.5,10.8,27c-0.6,13.9-9.3,25-18.6,34.6
					c-3.7,3.9-7,8.3-10.8,12.2c-1.2,1.3-2.8,2.2-4.6,2.4c-5,0.7-7.1-4.5-10.6-6.7c-8.9-5.7-12.6,2.8-13.4,5.1
					c-0.1,0.4-0.2,0.8-0.1,1.2c0.1,0.5,0.4,0.7,0.5,1.3c0,0,0,0.1,0,0.1c7.2,12.8,11,27.5,11,42.3c0.1,12.2-5.3,22.7-10.3,33.5
					c-5.4,11.8-23.1,47.3-18.4,58.3"/>
			</g>
			<path class="st2" d="M150.2,238.9l-44.8,10.2c0,0-20,23.9-22.4,51.1c-0.6,24.5,20.5,88,22,110.1c0.4,5.2,3.1,10,7.4,12.9
				c5.8,4.1,12.9,7,16.1,6.6c9.7-1.1,17.1-53.1,20.9-96.8c1-11.9,3.5-23.5,6.8-35C164.6,269.1,150.2,238.9,150.2,238.9z"/>
		</g>
	</g>
</g>
</svg>
