<?xml version="1.0" encoding="utf-8"?>
<!-- Generator: Adobe Illustrator 20.1.0, SVG Export Plug-In . SVG Version: 6.00 Build 0)  -->
<svg version="1.1" id="Layer_1" xmlns="http://www.w3.org/2000/svg" xmlns:xlink="http://www.w3.org/1999/xlink" x="0px" y="0px"
	 viewBox="0 0 299.5 295" style="enable-background:new 0 0 299.5 295;" xml:space="preserve">
<style type="text/css">
	.st0{fill:#DCE5E4;}
	.st1{clip-path:url(#SVGID_2_);}
	.st2{fill:#2BB7B8;}
</style>
<g>
	<circle class="st0" cx="145.4" cy="155.4" r="128.4"/>
	<g>
		<defs>
			<circle id="SVGID_1_" cx="145.4" cy="155.4" r="128.4"/>
		</defs>
		<clipPath id="SVGID_2_">
			<use xlink:href="#SVGID_1_"  style="overflow:visible;"/>
		</clipPath>
		<g class="st1">
			<path class="st2" d="M161.6,245.4l-44.8,10.2c0,0-20,23.9-22.4,51.1c-0.6,24.5,20.5,88,22,110.1c0.4,5.2,3.1,10,7.4,12.9
				c5.8,4.1,12.9,7,16.1,6.6c9.7-1.1,17.1-53.1,20.9-96.8c1-11.9,3.5-23.5,6.8-35C176,275.6,161.6,245.4,161.6,245.4z"/>
			<path class="st2" d="M113.2,269.7c-14.8-29.8-23-77.6-14-109.5c3-10.7,8.2-21.3,13.8-31c3.1-5.4,7.2-9.5,10.9-14.4
				c4.9-6.7,6.5-15.7,5.8-23.8c-0.4-5.1-2.4-10-2.2-15.1c0.4-11.7,5.4-25.6,16.3-31.4c4.9-2.6,10.6-3.4,16.1-2.9
				c5.5,0.5,10.9,2.2,15.9,4.5c9.6,4.3,16.1,11.9,19.1,22c4,13.3-0.6,26.7-6.2,38.8c-2.3,4.9-3.8,10.2-6.2,15c-0.8,1.6-2,3-3.5,3.8
				c-4.5,2.3-8.2-1.9-12.2-2.8c-10.3-2.4-11,6.7-11,9.3c0,0.4,0.1,0.8,0.3,1.2c0.3,0.4,0.6,0.6,0.9,1c0,0,0,0,0,0
				c15,14.5,25.6,32.8,26.6,54.5c0.5,11.2-1.6,21.9-5.5,32.4c-2.3,6.1-17.7,33.5-16.4,41.5"/>
		</g>
	</g>
</g>
</svg>
