<?xml version="1.0" encoding="utf-8"?>
<!-- Generator: Adobe Illustrator 20.1.0, SVG Export Plug-In . SVG Version: 6.00 Build 0)  -->
<svg version="1.1" id="Layer_1" xmlns="http://www.w3.org/2000/svg" xmlns:xlink="http://www.w3.org/1999/xlink" x="0px" y="0px"
	 viewBox="0 0 299.5 295" style="enable-background:new 0 0 299.5 295;" xml:space="preserve">
<style type="text/css">
	.st0{fill:#DCE5E4;}
	.st1{clip-path:url(#SVGID_2_);}
	.st2{fill:#FF0000;}
</style>
<g>
	<circle class="st0" cx="141.5" cy="152.9" r="128.4"/>
	<g>
		<defs>
			<circle id="SVGID_1_" cx="141.5" cy="152.9" r="128.4"/>
		</defs>
		<clipPath id="SVGID_2_">
			<use xlink:href="#SVGID_1_"  style="overflow:visible;"/>
		</clipPath>
		<g class="st1">
			<g>
				<path class="st2" d="M94.6,277.6c-3.3-12.9-9.5-24.9-13.8-37.4c-11-31.5-12.2-70.6,5.3-100c5.7-9.6,12.5-18.7,20.3-26.6
					c4.4-4.4,18.4-9.3,23.2-13.2c6.5-5.2,10.3-11.5,11.7-19.6c0.9-5,0.3-10.3,1.8-15.2c3.4-11.2,11.8-23.3,23.8-26.2
					c5.4-1.3,11.1-0.6,16.3,1.3c5.2,1.9,10,4.9,14.3,8.4c8.1,6.6,12.5,15.6,12.8,26.2c0.5,13.9-7.4,25.6-15.9,35.9
					c-3.4,4.2-6.3,8.8-9.8,12.9c-1.1,1.3-2.7,2.4-4.4,2.7c-5,1-7.4-3.9-11.1-5.9c-9.3-5-12.3,3.7-13,6.1c-0.1,0.4-0.1,0.8,0,1.2
					c0.1,0.4,0.4,0.7,0.6,1.2c0,0,0,0.1,0,0.1c8.2,12.3,13,26.6,14.2,41.3c1,12.2-3.6,23-7.7,34.2c-4.7,12.5-15.8,34.5-13.1,46.4"/>
			</g>
			<path class="st2" d="M149.5,242.9l-44.8,10.2c0,0-20,23.9-22.4,51.1c-0.6,24.5,20.5,88,22,110.1c0.4,5.2,3.1,10,7.4,12.9
				c5.8,4.1,12.9,7,16.1,6.6c9.7-1.1,17.1-53.1,20.9-96.8c1-11.9,3.5-23.5,6.8-35C163.9,273.1,149.5,242.9,149.5,242.9z"/>
		</g>
	</g>
</g>
</svg>
