<?xml version="1.0" encoding="utf-8"?>
<!-- Generator: Adobe Illustrator 20.1.0, SVG Export Plug-In . SVG Version: 6.00 Build 0)  -->
<svg version="1.1" id="Layer_1" xmlns="http://www.w3.org/2000/svg" xmlns:xlink="http://www.w3.org/1999/xlink" x="0px" y="0px"
	 viewBox="0 0 299.5 295" style="enable-background:new 0 0 299.5 295;" xml:space="preserve">
<style type="text/css">
	.st0{fill:#DCE5E4;}
	.st1{clip-path:url(#SVGID_2_);fill:#2BB7B8;}
</style>
<g>
	<circle class="st0" cx="153.7" cy="152.4" r="128.4"/>
	<g>
		<defs>
			<circle id="SVGID_1_" cx="153.7" cy="152.4" r="128.4"/>
		</defs>
		<clipPath id="SVGID_2_">
			<use xlink:href="#SVGID_1_"  style="overflow:visible;"/>
		</clipPath>
		<path class="st1" d="M178.8,242.4L134,252.7c0,0-20,23.9-22.4,51.1c-0.6,24.5,20.5,88,22,110.1c0.4,5.2,3.1,10,7.4,12.9
			c5.8,4.1,12.9,7,16.1,6.6c9.7-1.1,17.1-53.1,20.9-96.8c1-11.9,3.5-23.5,6.8-35C193.2,272.6,178.8,242.4,178.8,242.4z"/>
		<path class="st1" d="M130.6,257.6c-18.2-27.9-24.4-61.7-19.2-94.4c1.8-11,4.7-22,9.1-32.2c2.4-5.7,6.1-10.3,9.1-15.6
			c4.1-7.2,4.6-16.3,3-24.4c-1-5-3.5-9.6-4-14.8c-1-11.7,2.4-26,12.5-33.1c4.5-3.2,10.1-4.6,15.7-4.8c5.5-0.1,11.1,0.9,16.3,2.6
			c10,3.2,17.3,9.9,21.5,19.6c5.6,12.8,2.5,26.5-1.6,39.2c-1.7,5.1-2.6,10.5-4.4,15.6c-0.6,1.7-1.6,3.2-3.1,4.2
			c-4.2,2.8-8.4-0.9-12.5-1.4c-10.5-1.2-10.1,8-9.8,10.5c0,0.4,0.2,0.8,0.5,1.1c0.3,0.4,0.6,0.5,1.1,0.9c0,0,0,0,0,0
			c19.7,14.6,29.3,35.5,29.9,60.6c0.3,11.7-3.6,20.2-8.4,30.6c-1.7,3.6-7.8,20.8-7.2,26.7"/>
	</g>
</g>
</svg>
