<?xml version="1.0" encoding="utf-8"?>
<!-- Generator: Adobe Illustrator 20.1.0, SVG Export Plug-In . SVG Version: 6.00 Build 0)  -->
<svg version="1.1" id="Layer_1" xmlns="http://www.w3.org/2000/svg" xmlns:xlink="http://www.w3.org/1999/xlink" x="0px" y="0px"
	 viewBox="0 0 299.5 295" style="enable-background:new 0 0 299.5 295;" xml:space="preserve">
<style type="text/css">
	.st0{fill:#DCE5E4;}
	.st1{clip-path:url(#SVGID_2_);}
	.st2{fill:#2BB7B8;}
</style>
<g>
	<circle class="st0" cx="146.3" cy="154.9" r="128.4"/>
	<g>
		<defs>
			<circle id="SVGID_1_" cx="146.3" cy="154.9" r="128.4"/>
		</defs>
		<clipPath id="SVGID_2_">
			<use xlink:href="#SVGID_1_"  style="overflow:visible;"/>
		</clipPath>
		<g class="st1">
			<path class="st2" d="M167.8,244.9L123,255.2c0,0-20,23.9-22.4,51.1c-0.6,24.5,20.5,88,22,110.1c0.4,5.2,3.1,10,7.4,12.9
				c5.8,4.1,12.9,7,16.1,6.6c9.7-1.1,17.1-53.1,20.9-96.8c1-11.9,3.5-23.5,6.8-35C182.3,275.1,167.8,244.9,167.8,244.9z"/>
			<path class="st2" d="M116.4,279.1c-5.3-8-11.4-18.7-15-27.6c-12.5-30.9-16.2-65.2-4.8-96.3c3.8-10.5,8.8-20.7,15.1-29.9
				c3.5-5.1,11.9-10.9,15.9-15.6c5.4-6.3,7.6-13.2,7.5-21.3c0-5.1-1.6-10.1-1.1-15.3c1.3-11.7,7.3-25.1,18.6-30.1
				c5.1-2.3,10.8-2.6,16.3-1.7c5.4,0.9,10.7,3,15.6,5.6c9.2,5,15.1,13.1,17.4,23.4c3,13.6-2.6,26.5-9,38.2
				c-2.6,4.7-4.6,9.8-7.3,14.5c-0.9,1.5-2.2,2.8-3.8,3.5c-4.7,1.9-8-2.5-12-3.8c-10.1-3.2-11.5,5.9-11.6,8.4c0,0.4,0,0.8,0.3,1.2
				c0.2,0.4,0.5,0.6,0.9,1.1c0,0,0,0,0,0c10.3,10.6,17.7,23.8,21.5,38c3.2,11.8,0.7,23.3-1.3,35c-1.9,11-11.9,34.8-9.7,45.7"/>
		</g>
	</g>
</g>
</svg>
