<?xml version="1.0" encoding="utf-8"?>
<!-- Generator: Adobe Illustrator 20.1.0, SVG Export Plug-In . SVG Version: 6.00 Build 0)  -->
<svg version="1.1" id="Layer_1" xmlns="http://www.w3.org/2000/svg" xmlns:xlink="http://www.w3.org/1999/xlink" x="0px" y="0px"
	 viewBox="0 0 299.5 295" style="enable-background:new 0 0 299.5 295;" xml:space="preserve">
<style type="text/css">
	.st0{fill:#DCE5E4;}
	.st1{clip-path:url(#SVGID_2_);}
	.st2{fill:#FF0000;}
</style>
<g>
	<circle class="st0" cx="151.8" cy="149.4" r="128.4"/>
	<g>
		<defs>
			<circle id="SVGID_1_" cx="151.8" cy="149.4" r="128.4"/>
		</defs>
		<clipPath id="SVGID_2_">
			<use xlink:href="#SVGID_1_"  style="overflow:visible;"/>
		</clipPath>
		<g class="st1">
			<path class="st2" d="M105.9,275.6c-3-14.3-10.7-26.8-15.9-40.3c-5.5-14.2-7.2-29.8-7.5-45c-0.2-11.7,1.1-23.5,4.7-34.6
				c2.2-6.9,5.3-13.5,9-19.7c5.8-9.5,12.6-18.6,20.6-26.4c4.4-4.4,18.5-9.2,23.3-13c6.5-5.1,10.4-11.4,11.9-19.5
				c0.9-5,0.4-10.2,1.9-15.2c3.5-11.2,12-23.2,24.1-25.9c5.4-1.2,11.1-0.5,16.3,1.5c5.2,2,9.9,5,14.2,8.5
				c8.1,6.7,12.3,15.7,12.6,26.3c0.3,13.9-7.6,25.5-16.2,35.8c-3.5,4.1-6.4,8.8-9.9,12.8c-1.2,1.3-2.7,2.4-4.4,2.7c-5,1-7.4-4-11-6
				c-9.3-5.1-12.4,3.6-13.1,6c-0.1,0.4-0.1,0.8,0,1.2c0.1,0.4,0.4,0.7,0.6,1.3c0,0,0,0.1,0,0.1c8.1,12.3,12.8,26.8,13.8,41.4
				c0.9,12.2-3.8,23-8.1,34.1c-4.8,12.4-17.2,37.6-13.1,49.1"/>
			<path class="st2" d="M158.6,239.4l-44.8,10.2c0,0-20,23.9-22.4,51.1c-0.6,24.5,20.5,88,22,110.1c0.4,5.2,3.1,10,7.4,12.9
				c5.8,4.1,12.9,7,16.1,6.6c9.7-1.1,17.1-53.1,20.9-96.8c1-11.9,3.5-23.5,6.8-35C173.1,269.6,158.6,239.4,158.6,239.4z"/>
		</g>
	</g>
</g>
</svg>
