<?xml version="1.0" encoding="utf-8"?>
<!-- Generator: Adobe Illustrator 20.1.0, SVG Export Plug-In . SVG Version: 6.00 Build 0)  -->
<svg version="1.1" id="Layer_1" xmlns="http://www.w3.org/2000/svg" xmlns:xlink="http://www.w3.org/1999/xlink" x="0px" y="0px"
	 viewBox="0 0 299.5 295" style="enable-background:new 0 0 299.5 295;" xml:space="preserve">
<style type="text/css">
	.st0{clip-path:url(#SVGID_2_);fill:#DCE5E4;}
	.st1{clip-path:url(#SVGID_2_);}
	.st2{fill:#2BB7B8;}
</style>
<g>
	<defs>
		<circle id="SVGID_1_" cx="150.1" cy="148.4" r="128.4"/>
	</defs>
	<clipPath id="SVGID_2_">
		<use xlink:href="#SVGID_1_"  style="overflow:visible;"/>
	</clipPath>
	<circle class="st0" cx="150.1" cy="148.4" r="128.4"/>
	<g class="st1">
		<g>
			<path class="st2" d="M115.4,271.7c-5.9-9.1-10.8-18.9-14.5-29.1c-11.4-31.3-13.7-65.6-1.1-96.3C104,136,109.3,126,116,117
				c3.7-5,12.3-10.6,16.4-15.1c5.6-6.1,8.2-12.9,8.4-21c0.1-5.1-1.2-10.2-0.5-15.3c1.7-11.6,8.3-24.8,19.7-29.4
				c5.1-2.1,10.9-2.2,16.3-1.1c5.4,1.1,10.6,3.4,15.3,6.2c9,5.4,14.6,13.6,16.5,24c2.5,13.7-3.6,26.4-10.5,37.8
				c-2.8,4.6-5,9.7-7.8,14.2c-0.9,1.5-2.3,2.7-3.9,3.4c-4.8,1.8-7.9-2.8-11.8-4.2c-9.9-3.6-11.7,5.5-12,8c0,0.4,0,0.8,0.2,1.2
				c0.2,0.4,0.5,0.7,0.8,1.1c0,0,0,0,0,0c9.9,10.9,16.8,24.4,20.1,38.8c2.8,11.9-0.2,23.3-2.6,34.9c-2.3,10.6-11,30.7-10.3,41.8"/>
		</g>
		<path class="st2" d="M170.6,238.4l-44.8,10.2c0,0-20,23.9-22.4,51.1c-0.6,24.5,20.5,88,22,110.1c0.4,5.2,3.1,10,7.4,12.9
			c5.8,4.1,12.9,7,16.1,6.6c9.7-1.1,17.1-53.1,20.9-96.8c1-11.9,3.5-23.5,6.8-35C185.1,268.6,170.6,238.4,170.6,238.4z"/>
	</g>
</g>
</svg>
