<?xml version="1.0" encoding="utf-8"?>
<!-- Generator: Adobe Illustrator 20.1.0, SVG Export Plug-In . SVG Version: 6.00 Build 0)  -->
<svg version="1.1" id="Layer_1" xmlns="http://www.w3.org/2000/svg" xmlns:xlink="http://www.w3.org/1999/xlink" x="0px" y="0px"
	 viewBox="0 0 299.5 295" style="enable-background:new 0 0 299.5 295;" xml:space="preserve">
<style type="text/css">
	.st0{fill:#DCE5E4;}
	.st1{clip-path:url(#SVGID_2_);}
	.st2{fill:#2BB7B8;}
</style>
<g>
	<circle class="st0" cx="153.7" cy="154.9" r="128.4"/>
	<g>
		<defs>
			<circle id="SVGID_1_" cx="153.7" cy="154.9" r="128.4"/>
		</defs>
		<clipPath id="SVGID_2_">
			<use xlink:href="#SVGID_1_"  style="overflow:visible;"/>
		</clipPath>
		<g class="st1">
			<path class="st2" d="M165.4,244.9l-44.8,10.2c0,0-20,23.9-22.4,51.1c-0.6,24.5,20.5,88,22,110.1c0.4,5.2,3.1,10,7.4,12.9
				c5.8,4.1,12.9,7,16.1,6.6c9.7-1.1,17.1-53.1,20.9-96.8c1-11.9,3.5-23.5,6.8-35C179.8,275.1,165.4,244.9,165.4,244.9z"/>
			<path class="st2" d="M114,283.7c-1.1-3.8-16.1-37.3-16.9-40.2c-9-32.1-10.9-70.1,3.9-99.8c5-10,12-15.6,19.3-24.1
				c4-4.7,13.9-10,18.4-14.2c6.1-5.7,9.3-12.2,10.1-20.4c0.5-5.1-0.5-10.2,0.6-15.3c2.6-11.5,10-24.1,21.8-27.9
				c5.3-1.7,11-1.4,16.4,0.1c5.3,1.5,10.3,4.2,14.8,7.3c8.6,6,13.6,14.7,14.7,25.1c1.5,13.8-5.5,26.1-13.2,37
				c-3.1,4.4-5.6,9.3-8.8,13.6c-1,1.4-2.5,2.6-4.2,3.1c-4.9,1.4-7.7-3.4-11.5-5.1c-9.6-4.3-12,4.6-12.5,7.1c-0.1,0.4,0,0.8,0.1,1.2
				c0.2,0.4,0.5,0.7,0.7,1.2c0,0,0,0.1,0,0.1c9.1,11.6,14.9,25.6,17.2,40.1c1.9,12.1-1.9,23.2-5.2,34.7
				c-3.7,12.8-17.7,43.6-10.8,53.7"/>
		</g>
	</g>
</g>
</svg>
