<?xml version="1.0" encoding="utf-8"?>
<!-- Generator: Adobe Illustrator 20.1.0, SVG Export Plug-In . SVG Version: 6.00 Build 0)  -->
<svg version="1.1" id="Layer_1" xmlns="http://www.w3.org/2000/svg" xmlns:xlink="http://www.w3.org/1999/xlink" x="0px" y="0px"
	 viewBox="0 0 299.5 295" style="enable-background:new 0 0 299.5 295;" xml:space="preserve">
<style type="text/css">
	.st0{fill:#DCE5E4;}
	.st1{clip-path:url(#SVGID_2_);}
	.st2{fill:#FF0000;}
</style>
<g>
	<circle class="st0" cx="141.9" cy="141.9" r="128.4"/>
	<g>
		<defs>
			<circle id="SVGID_1_" cx="141.9" cy="141.9" r="128.4"/>
		</defs>
		<clipPath id="SVGID_2_">
			<use xlink:href="#SVGID_1_"  style="overflow:visible;"/>
		</clipPath>
		<g class="st1">
			<path class="st2" d="M144.9,231.9L100,242.2c0,0-20,23.9-22.4,51.1c-0.6,24.5,20.5,88,22,110.1c0.4,5.2,3.1,10,7.4,12.9
				c5.8,4.1,12.9,7,16.1,6.6c9.7-1.1,17.1-53.1,20.9-96.8c1-11.9,3.5-23.5,6.8-35C159.3,262.1,144.9,231.9,144.9,231.9z"/>
			<path class="st2" d="M90.2,267.2c-2.1-11.3-14.8-40.9-15.8-46.9c-5.4-32.9-5.5-66.3,12.5-94.1c6.1-9.4,13.2-18.2,21.3-25.8
				c4.5-4.2,17.7-8.9,22.6-12.6c6.7-4.9,10.8-11.1,12.5-19.1c1.1-5,0.7-10.2,2.3-15.1c3.8-11.1,12.7-22.8,24.8-25.2
				c5.4-1.1,11.1-0.1,16.3,2c5.1,2.1,9.8,5.3,13.9,8.9c7.9,6.9,11.9,16.1,11.8,26.6c-0.1,13.9-8.4,25.3-17.3,35.3
				c-3.6,4-6.6,8.6-10.3,12.5c-1.2,1.3-2.7,2.3-4.5,2.6c-5,0.8-7.3-4.2-10.9-6.3c-9.1-5.3-12.5,3.2-13.2,5.6c-0.1,0.4-0.1,0.8,0,1.2
				c0.1,0.5,0.4,0.7,0.6,1.3c0,0,0,0.1,0,0.1c7.7,12.6,12,27.1,12.6,41.8c0.5,12.2-4.4,22.9-9,33.9c-5,12-19.3,36.1-14.6,49.4"/>
		</g>
	</g>
</g>
</svg>
