<?xml version="1.0" encoding="utf-8"?>
<!-- Generator: Adobe Illustrator 20.1.0, SVG Export Plug-In . SVG Version: 6.00 Build 0)  -->
<svg version="1.1" id="Layer_1" xmlns="http://www.w3.org/2000/svg" xmlns:xlink="http://www.w3.org/1999/xlink" x="0px" y="0px"
	 viewBox="0 0 299.5 295" style="enable-background:new 0 0 299.5 295;" xml:space="preserve">
<style type="text/css">
	.st0{fill:#DCE5E4;}
	.st1{clip-path:url(#SVGID_2_);}
	.st2{fill:#FF0000;}
</style>
<g>
	<circle class="st0" cx="149.1" cy="148.9" r="128.4"/>
	<g>
		<g>
			<defs>
				<circle id="SVGID_1_" cx="149.1" cy="148.9" r="128.4"/>
			</defs>
			<clipPath id="SVGID_2_">
				<use xlink:href="#SVGID_1_"  style="overflow:visible;"/>
			</clipPath>
			<g class="st1">
				<g>
					<path class="st2" d="M95.5,269.1c-2.8-10.9-8.7-28.8-13.3-39c-13.9-31.3-8-75.7,11.6-103.3c6.5-9.1,13.9-14.6,22.4-21.8
						c4.7-4.1,20-8.5,25.1-11.9c6.8-4.7,11.4-10.6,13.4-18.5c1.3-4.9,1.1-10.2,3-15c4.3-10.9,13.7-22.3,25.9-24.1
						c5.5-0.9,11.1,0.4,16.2,2.7c5,2.3,9.6,5.8,13.5,9.6c7.6,7.3,11.2,16.6,10.6,27.1c-0.7,13.9-9.5,24.9-18.8,34.5
						c-3.7,3.9-7.1,8.3-10.9,12.1c-1.2,1.3-2.8,2.2-4.6,2.4c-5,0.7-7.1-4.5-10.6-6.8c-8.9-5.8-12.6,2.7-13.4,5
						c-0.1,0.4-0.2,0.8-0.1,1.2c0.1,0.5,0.4,0.7,0.5,1.3l0,0.1c7.1,12.8,10.8,27.6,10.7,42.4c0,12.2-5.5,22.7-10.5,33.4
						c-5.5,11.8-23.4,47.1-18.8,58.2"/>
				</g>
				<path class="st2" d="M149,233.8l-43.6,15.3c0,0-20,23.9-22.4,51.1c-0.6,24.5,20.5,88,22,110.1c0.4,5.2,3.1,10,7.4,12.9
					c5.8,4.1,12.9,7,16.1,6.6c9.7-1.1,17.1-53.1,20.9-96.8c1-11.9,3.5-23.5,6.8-35C164.6,269.1,149,233.8,149,233.8z"/>
			</g>
		</g>
	</g>
</g>
</svg>
