<?xml version="1.0" encoding="utf-8"?>
<!-- Generator: Adobe Illustrator 20.1.0, SVG Export Plug-In . SVG Version: 6.00 Build 0)  -->
<svg version="1.1" id="Layer_1" xmlns="http://www.w3.org/2000/svg" xmlns:xlink="http://www.w3.org/1999/xlink" x="0px" y="0px"
	 viewBox="0 0 299.5 295" style="enable-background:new 0 0 299.5 295;" xml:space="preserve">
<style type="text/css">
	.st0{fill:none;}
	.st1{fill:#DCE5E4;}
	.st2{clip-path:url(#SVGID_2_);}
	.st3{fill:#2BB7B8;}
</style>
<g>
	<line class="st0" x1="146" y1="249.7" x2="146" y2="249.4"/>
	<circle class="st1" cx="146" cy="142.9" r="128.4"/>
	<g>
		<defs>
			<circle id="SVGID_1_" cx="146" cy="142.9" r="128.4"/>
		</defs>
		<clipPath id="SVGID_2_">
			<use xlink:href="#SVGID_1_"  style="overflow:visible;"/>
		</clipPath>
		<g class="st2">
			<path class="st3" d="M167.2,232.9l-44.8,10.2c0,0-20,23.9-22.4,51.1c-0.6,24.5,20.5,88,22,110.1c0.4,5.2,3.1,10,7.4,12.9
				c5.8,4.1,12.9,7,16.1,6.6c9.7-1.1,17.1-53.1,20.9-96.8c1-11.9,3.5-23.5,6.8-35C181.6,263.1,167.2,232.9,167.2,232.9z"/>
			<path class="st3" d="M119,247.1c-17.2-28.5-23.3-62.5-16.9-95c2.1-11,6.5-21.8,11.2-31.9c2.6-5.6,6.4-10,9.7-15.3
				c4.3-7.1,5.1-16.2,3.8-24.2c-0.8-5-3.2-9.7-3.4-14.9c-0.6-11.7,3.3-25.9,13.6-32.6c4.6-3,10.3-4.3,15.8-4.2
				c5.5,0.1,11.1,1.3,16.2,3.1c9.9,3.5,17,10.5,20.9,20.3c5.1,12.9,1.6,26.6-2.9,39.2c-1.8,5.1-3,10.4-4.9,15.5
				c-0.6,1.7-1.7,3.1-3.2,4.1c-4.3,2.6-8.3-1.2-12.4-1.8c-10.4-1.6-10.4,7.6-10.2,10.1c0,0.4,0.2,0.8,0.4,1.2c0.3,0.4,0.6,0.5,1,1
				c0,0,0,0,0,0c19.2,15.3,30.1,36.6,29.8,61.7c-0.1,11.7-4.3,20.1-9.5,30.2c-2.7,5.2-10.4,19.8-8.5,32.1"/>
		</g>
	</g>
</g>
</svg>
