<?xml version="1.0" encoding="utf-8"?>
<!-- Generator: Adobe Illustrator 20.1.0, SVG Export Plug-In . SVG Version: 6.00 Build 0)  -->
<svg version="1.1" id="Layer_1" xmlns="http://www.w3.org/2000/svg" xmlns:xlink="http://www.w3.org/1999/xlink" x="0px" y="0px"
	 viewBox="0 0 299.5 295" style="enable-background:new 0 0 299.5 295;" xml:space="preserve">
<style type="text/css">
	.st0{fill:#DCE5E4;}
	.st1{clip-path:url(#SVGID_2_);}
	.st2{fill:#FF0000;}
</style>
<g>
	<circle class="st0" cx="151.8" cy="151.9" r="128.4"/>
	<g>
		<defs>
			<circle id="SVGID_1_" cx="151.8" cy="151.9" r="128.4"/>
		</defs>
		<clipPath id="SVGID_2_">
			<use xlink:href="#SVGID_1_"  style="overflow:visible;"/>
		</clipPath>
		<g class="st1">
			<path class="st2" d="M164.6,241.9l-44.8,10.2c0,0-20,23.9-22.4,51.1c-0.6,24.5,20.5,88,22,110.1c0.4,5.2,3.1,10,7.4,12.9
				c5.8,4.1,12.9,7,16.1,6.6c9.7-1.1,17.1-53.1,20.9-96.8c1-11.9,3.5-23.5,6.8-35C179,272.1,164.6,241.9,164.6,241.9z"/>
			<path class="st2" d="M110.7,279c-3-11.5-9.8-24.4-14.7-35.1C82.4,214,81.5,169.2,97,140c5.2-9.9,11.5-16.3,19-24.6
				c4.1-4.6,18-9.8,22.7-13.9c6.2-5.5,9.6-12,10.6-20.1c0.6-5.1-0.2-10.3,1-15.3c2.8-11.4,10.6-23.9,22.5-27.3
				c5.3-1.6,11.1-1.1,16.4,0.5c5.3,1.6,10.2,4.4,14.7,7.7c8.5,6.2,13.2,15,14.1,25.5c1.2,13.9-6.1,25.9-14.1,36.7
				c-3.2,4.3-5.9,9.1-9.2,13.4c-1.1,1.4-2.5,2.5-4.2,3c-4.9,1.3-7.6-3.6-11.4-5.3c-9.5-4.5-12.1,4.3-12.7,6.8
				c-0.1,0.4-0.1,0.8,0.1,1.2c0.2,0.4,0.4,0.7,0.7,1.2c0,0,0,0.1,0,0.1c8.8,11.8,14.3,25.9,16.2,40.5c1.6,12.1-2.4,23.2-6,34.5
				c-4,12.7-16.4,35.6-10.9,46.4"/>
		</g>
	</g>
</g>
</svg>
