<?xml version="1.0" encoding="utf-8"?>
<!-- Generator: Adobe Illustrator 20.1.0, SVG Export Plug-In . SVG Version: 6.00 Build 0)  -->
<svg version="1.1" id="Layer_1" xmlns="http://www.w3.org/2000/svg" xmlns:xlink="http://www.w3.org/1999/xlink" x="0px" y="0px"
	 viewBox="0 0 299.5 295" style="enable-background:new 0 0 299.5 295;" xml:space="preserve">
<style type="text/css">
	.st0{fill:#2BB7B8;}
	.st1{fill:#DCE5E4;}
	.st2{clip-path:url(#SVGID_2_);}
</style>
<g>
	<path class="st0" d="M1.1,250"/>
	<g>
		<circle class="st1" cx="156.7" cy="155.4" r="128.4"/>
		<g>
			<defs>
				<circle id="SVGID_1_" cx="156.6" cy="155.4" r="128.4"/>
			</defs>
			<clipPath id="SVGID_2_">
				<use xlink:href="#SVGID_1_"  style="overflow:visible;"/>
			</clipPath>
			<g class="st2">
				<path class="st0" d="M180.8,245.4L136,255.7c0,0-20,23.9-22.4,51.1c-0.6,24.5,20.5,88,22,110.1c0.4,5.2,3.1,10,7.4,12.9
					c5.8,4.1,12.9,7,16.1,6.6c9.7-1.1,17.1-53.1,20.9-96.8c1-11.9,3.5-23.5,6.8-35C195.2,275.6,180.8,245.4,180.8,245.4z"/>
				<g>
					<path class="st0" d="M182.9,260.7c-6.1-7.6,6.6-30.5,9-35.7c4.8-10.4,8.7-18.9,8.4-30.6c-0.6-25.1-12.2-46.1-31.9-60.6
						c0,0,0,0,0,0c-0.4-0.4-0.7-0.6-1.1-0.9c-0.3-0.3-0.4-0.7-0.5-1.1c-0.3-2.5-0.7-11.7,9.8-10.5c4.1,0.5,8.2,4.2,12.5,1.4
						c1.5-1,2.5-2.5,3.1-4.2c1.7-5.1,2.7-10.5,4.4-15.6c4.1-12.7,7.1-26.5,1.6-39.2c-4.2-9.7-11.6-16.4-21.6-19.6
						c-5.2-1.7-10.8-2.7-16.3-2.6c-5.5,0.1-11.1,1.6-15.7,4.8c-10.1,7.1-13.5,21.4-12.5,33.1c0.4,5.1,2.9,9.8,4,14.8
						c1.6,8,1.2,17.2-2.9,24.4c-3,5.4-6.7,9.9-9.1,15.6c-4.4,10.3-8.3,21.3-10.1,32.3c-5.2,32.7,2,66.5,20.2,94.4L182.9,260.7z"/>
				</g>
			</g>
		</g>
	</g>
</g>
</svg>
