<?xml version="1.0" encoding="utf-8"?>
<!-- Generator: Adobe Illustrator 20.1.0, SVG Export Plug-In . SVG Version: 6.00 Build 0)  -->
<svg version="1.1" id="Layer_1" xmlns="http://www.w3.org/2000/svg" xmlns:xlink="http://www.w3.org/1999/xlink" x="0px" y="0px"
	 viewBox="0 0 299.5 295" style="enable-background:new 0 0 299.5 295;" xml:space="preserve">
<style type="text/css">
	.st0{fill:#DCE5E4;}
	.st1{clip-path:url(#SVGID_2_);}
	.st2{fill:#2BB7B8;}
</style>
<g>
	<circle class="st0" cx="146" cy="153.4" r="128.4"/>
	<g>
		<defs>
			<circle id="SVGID_1_" cx="145.4" cy="153.4" r="128.4"/>
		</defs>
		<clipPath id="SVGID_2_">
			<use xlink:href="#SVGID_1_"  style="overflow:visible;"/>
		</clipPath>
		<g class="st1">
			<path class="st2" d="M163.1,243.4l-44.8,10.2c0,0-20,23.9-22.4,51.1c-0.6,24.5,20.5,88,22,110.1c0.4,5.2,3.1,10,7.4,12.9
				c5.8,4.1,12.9,7,16.1,6.6c9.7-1.1,17.1-53.1,20.9-96.8c1-11.9,3.5-23.5,6.8-35C177.5,273.6,163.1,243.4,163.1,243.4z"/>
			<path class="st2" d="M118.2,264.6c-16.1-29.2-24.4-71.7-16.8-103.9c2.6-10.9,7.3-21.6,12.4-31.5c2.8-5.5,6.8-9.8,10.2-14.9
				c4.6-6.9,5.8-16,4.7-24.1c-0.7-5.1-2.8-9.9-2.9-15c-0.1-11.7,4.3-25.8,14.9-32.1c4.8-2.8,10.4-3.9,16-3.6
				c5.5,0.3,11,1.7,16.1,3.8c9.7,3.9,16.6,11.2,20.1,21.1c4.6,13.1,0.6,26.7-4.4,39c-2,5-3.4,10.3-5.5,15.3
				c-0.7,1.6-1.8,3.1-3.4,3.9c-4.4,2.5-8.3-1.5-12.4-2.3c-10.4-2-10.7,7.2-10.6,9.8c0,0.4,0.1,0.8,0.4,1.2c0.3,0.4,0.6,0.6,1,1
				c0,0,0,0,0,0c16.9,15,27.3,34.7,27.5,58.5c0.1,11.7-3.2,21.2-7.6,31.8c-1.7,4.2-13.6,34.1-13.4,40.6"/>
		</g>
	</g>
</g>
</svg>
