<?xml version="1.0" encoding="utf-8"?>
<!-- Generator: Adobe Illustrator 20.1.0, SVG Export Plug-In . SVG Version: 6.00 Build 0)  -->
<svg version="1.1" id="Layer_1" xmlns="http://www.w3.org/2000/svg" xmlns:xlink="http://www.w3.org/1999/xlink" x="0px" y="0px"
	 viewBox="0 0 299.5 295" style="enable-background:new 0 0 299.5 295;" xml:space="preserve">
<style type="text/css">
	.st0{fill:#DCE5E4;}
	.st1{clip-path:url(#SVGID_2_);}
	.st2{fill:#FF0000;}
</style>
<g>
	<circle class="st0" cx="146.1" cy="155.4" r="128.4"/>
	<g>
		<defs>
			<circle id="SVGID_1_" cx="146.1" cy="155.4" r="128.4"/>
		</defs>
		<clipPath id="SVGID_2_">
			<use xlink:href="#SVGID_1_"  style="overflow:visible;"/>
		</clipPath>
		<g class="st1">
			<path class="st2" d="M153.4,245.4l-44.8,10.2c0,0-20,23.9-22.4,51.1c-0.6,24.5,20.5,88,22,110.1c0.4,5.2,3.1,10,7.4,12.9
				c5.8,4.1,12.9,7,16.1,6.6c9.7-1.1,17.1-53.1,20.9-96.8c1-11.9,3.5-23.5,6.8-35C167.9,275.6,153.4,245.4,153.4,245.4z"/>
			<path class="st2" d="M100,282.1c-1.9-7.3-14.5-37.8-15.6-42.8c-7.3-32.5-10.3-66.3,6.1-95.1c5.5-9.7,12.1-18.9,19.8-27
				c4.3-4.5,18.3-9.5,23-13.4c6.4-5.3,10-11.7,11.3-19.8c0.8-5,0.1-10.3,1.5-15.2c3.2-11.3,11.4-23.5,23.3-26.6
				c5.4-1.4,11.1-0.8,16.3,1c5.2,1.8,10.1,4.7,14.4,8.1c8.3,6.5,12.8,15.4,13.3,25.9c0.7,13.9-6.9,25.7-15.2,36.2
				c-3.4,4.2-6.1,8.9-9.6,13.1c-1.1,1.4-2.6,2.4-4.3,2.8c-5,1.1-7.5-3.8-11.2-5.7c-9.4-4.8-12.3,3.9-12.9,6.4
				c-0.1,0.4-0.1,0.8,0,1.2c0.2,0.4,0.4,0.7,0.7,1.2c0,0,0,0.1,0,0.1c8.4,12.1,13.5,26.4,15,41c1.2,12.2-3.1,23.1-7.1,34.3
				c-4.4,12.6-19.5,37.9-13.4,50.7"/>
		</g>
	</g>
</g>
</svg>
