<?xml version="1.0" encoding="utf-8"?>
<!-- Generator: Adobe Illustrator 20.1.0, SVG Export Plug-In . SVG Version: 6.00 Build 0)  -->
<svg version="1.1" id="Layer_1" xmlns="http://www.w3.org/2000/svg" xmlns:xlink="http://www.w3.org/1999/xlink" x="0px" y="0px"
	 viewBox="0 0 299.5 295" style="enable-background:new 0 0 299.5 295;" xml:space="preserve">
<style type="text/css">
	.st0{fill:#DCE5E4;}
	.st1{clip-path:url(#SVGID_2_);}
	.st2{fill:#2BB7B8;}
</style>
<g>
	<circle class="st0" cx="143.9" cy="152.9" r="128.4"/>
	<g>
		<defs>
			<circle id="SVGID_1_" cx="143.9" cy="152.9" r="128.4"/>
		</defs>
		<clipPath id="SVGID_2_">
			<use xlink:href="#SVGID_1_"  style="overflow:visible;"/>
		</clipPath>
		<g class="st1">
			<path class="st2" d="M112.4,268c-15.2-29.7-23.5-77.7-14.9-109.7c2.9-10.8,8-21.3,13.5-31.1c3-5.4,7.1-9.6,10.7-14.6
				c4.8-6.7,6.3-15.8,5.5-23.9c-0.5-5.1-2.5-9.9-2.4-15.1c0.3-11.7,5.1-25.6,15.9-31.6c4.8-2.7,10.6-3.5,16.1-3.1
				c5.5,0.5,10.9,2.1,16,4.3C182.4,47.5,189,55,192.2,65c4.2,13.3-0.3,26.7-5.7,38.9c-2.2,4.9-3.7,10.2-6,15.1
				c-0.7,1.6-1.9,3-3.5,3.8c-4.5,2.3-8.2-1.8-12.3-2.7c-10.3-2.3-10.9,6.9-10.9,9.4c0,0.4,0.1,0.8,0.4,1.2c0.3,0.4,0.6,0.6,0.9,1
				c0,0,0,0,0,0c16.5,14.2,26.8,34.8,27.2,56.6c0.2,10.8-2,21.5-6.2,31.5c-2.1,4.9-19.3,38.7-20,46.2"/>
			<path class="st2" d="M161.8,242.9l-44.8,10.2c0,0-20,23.9-22.4,51.1c-0.6,24.5,20.5,88,22,110.1c0.4,5.2,3.1,10,7.4,12.9
				c5.8,4.1,12.9,7,16.1,6.6c9.7-1.1,17.1-53.1,20.9-96.8c1-11.9,3.5-23.5,6.8-35C176.2,273.1,161.8,242.9,161.8,242.9z"/>
		</g>
	</g>
</g>
</svg>
