<?xml version="1.0" encoding="utf-8"?>
<!-- Generator: Adobe Illustrator 20.1.0, SVG Export Plug-In . SVG Version: 6.00 Build 0)  -->
<svg version="1.1" id="Layer_1" xmlns="http://www.w3.org/2000/svg" xmlns:xlink="http://www.w3.org/1999/xlink" x="0px" y="0px"
	 viewBox="0 0 299.5 295" style="enable-background:new 0 0 299.5 295;" xml:space="preserve">
<style type="text/css">
	.st0{fill:#DCE5E4;}
	.st1{clip-path:url(#SVGID_2_);}
	.st2{fill:#2BB7B8;}
</style>
<g>
	<circle class="st0" cx="152.8" cy="147.4" r="128.4"/>
	<g>
		<defs>
			<circle id="SVGID_1_" cx="152.8" cy="147.4" r="128.4"/>
		</defs>
		<clipPath id="SVGID_2_">
			<use xlink:href="#SVGID_1_"  style="overflow:visible;"/>
		</clipPath>
		<g class="st1">
			<path class="st2" d="M118.8,263.7c-14.3-29.8-22.1-80.4-12.9-112c3.1-10.7,8.4-21.2,14.1-30.8c3.1-5.4,7.3-10.4,11-15.4
				c5-6.6,6.6-14.6,6-22.8c-0.4-5.1-2.3-10-2.1-15.1c0.5-11.7,5.6-25.5,16.5-31.3c4.9-2.6,10.6-3.3,16.1-2.8
				c5.5,0.6,10.9,2.3,15.9,4.6c9.5,4.4,16,12,18.9,22.1c3.9,13.4-0.8,26.6-6.5,38.7c-2.3,4.9-3.9,10.1-6.3,15c-0.8,1.6-2,3-3.6,3.7
				c-4.6,2.2-8.2-2-12.2-2.9c-10.3-2.5-11,6.7-11.1,9.2c0,0.4,0.1,0.8,0.3,1.2c0.3,0.4,0.6,0.6,0.9,1c0,0,0,0,0,0
				c22.4,20.4,32.8,51.2,22.6,80.5c-2.5,7.3-6.2,14.2-8.4,21.5c-1.5,5.1-3.1,10.2-4.9,15.1l-8.3,23"/>
			<path class="st2" d="M169.2,237.4l-44.8,10.2c0,0-20,23.9-22.4,51.1c-0.6,24.5,20.5,88,22,110.1c0.4,5.2,3.1,10,7.4,12.9
				c5.8,4.1,12.9,7,16.1,6.6c9.7-1.1,17.1-53.1,20.9-96.8c1-11.9,3.5-23.5,6.8-35C183.6,267.6,169.2,237.4,169.2,237.4z"/>
		</g>
	</g>
</g>
</svg>
