<?xml version="1.0" encoding="utf-8"?>
<!-- Generator: Adobe Illustrator 20.1.0, SVG Export Plug-In . SVG Version: 6.00 Build 0)  -->
<svg version="1.1" id="Layer_1" xmlns="http://www.w3.org/2000/svg" xmlns:xlink="http://www.w3.org/1999/xlink" x="0px" y="0px"
	 viewBox="0 0 299.5 295" style="enable-background:new 0 0 299.5 295;" xml:space="preserve">
<style type="text/css">
	.st0{fill:#DCE5E4;}
	.st1{clip-path:url(#SVGID_2_);}
	.st2{fill:#2BB7B8;}
</style>
<g>
	<circle class="st0" cx="147.1" cy="153.9" r="128.4"/>
	<g>
		<g>
			<defs>
				<path id="SVGID_1_" d="M148,31.8c74.9,0,110,42.1,110,117s-36,133.4-110.9,133.4S52,224.8,52,149.8S73.1,31.8,148,31.8z"/>
			</defs>
			<clipPath id="SVGID_2_">
				<use xlink:href="#SVGID_1_"  style="overflow:visible;"/>
			</clipPath>
			<g class="st1">
				<path class="st2" d="M175.6,243.9l-44.8,10.2c0,0-20,23.9-22.4,51.1c-0.6,24.5,20.5,88,22,110.1c0.4,5.2,3.1,10,7.4,12.9
					c5.8,4.1,12.9,7,16.1,6.6c9.7-1.1,17.1-53.1,20.9-96.8c1-11.9,3.5-23.5,6.8-35C190.1,274.1,175.6,243.9,175.6,243.9z"/>
				<path class="st2" d="M177.3,248.8c-1.2-11.2,3.6-20.2,5.7-25.6c4.1-10.7,8.4-21.4,7.4-33.1c-2.3-25-13.2-45.1-33.9-58.4h-0.1
					c-0.4-0.4-0.8-0.5-1.1-0.8s-0.5-0.7-0.6-1.1c-0.5-2.5-1.5-11.6,9.1-11.1c4.1,0.2,8.5,3.6,12.6,0.6c1.4-1.1,2.3-2.7,2.8-4.4
					c1.4-5.2,2-10.7,3.3-15.9c3.3-13,5.3-26.9-1.1-39.3c-4.8-9.4-12.6-15.6-22.8-18.1c-5.3-1.3-11-2-16.5-1.5s-11,2.3-15.3,5.8
					c-9.6,7.7-12,22.3-10.2,33.9c0.8,5.1,3.6,9.5,4.9,14.5c2.2,7.9,2.3,17-1.3,24.5c-2.7,5.6-6,10.3-8.1,16.2
					c-3.7,10.5-6.9,21.8-7.9,32.9c-3,33,6.4,63.2,26.5,89.8L177.3,248.8z"/>
			</g>
		</g>
	</g>
</g>
</svg>
