<?xml version="1.0" encoding="utf-8"?>
<!-- Generator: Adobe Illustrator 20.1.0, SVG Export Plug-In . SVG Version: 6.00 Build 0)  -->
<svg version="1.1" id="Layer_1" xmlns="http://www.w3.org/2000/svg" xmlns:xlink="http://www.w3.org/1999/xlink" x="0px" y="0px"
	 viewBox="0 0 299.5 295" style="enable-background:new 0 0 299.5 295;" xml:space="preserve">
<style type="text/css">
	.st0{fill:#DCE5E4;}
	.st1{clip-path:url(#SVGID_2_);}
	.st2{fill:#2BB7B8;}
</style>
<g>
	<circle class="st0" cx="142.9" cy="145.4" r="128.4"/>
	<g>
		<defs>
			<circle id="SVGID_1_" cx="142.9" cy="145.4" r="128.4"/>
		</defs>
		<clipPath id="SVGID_2_">
			<use xlink:href="#SVGID_1_"  style="overflow:visible;"/>
		</clipPath>
		<g class="st1">
			<path class="st2" d="M158.8,235.4L114,245.7c0,0-20,23.9-22.4,51.1c-0.6,24.5,20.5,88,22,110.1c0.4,5.2,3.1,10,7.4,12.9
				c5.8,4.1,12.9,7,16.1,6.6c9.7-1.1,17.1-53.1,20.9-96.8c1-11.9,3.5-23.5,6.8-35C173.3,265.6,158.8,235.4,158.8,235.4z"/>
			<path class="st2" d="M105.2,270.2c-1-2.7-14.9-31-15.7-33.8c-10-31.8-12.9-69,1-99.1c4.7-10.1,11.5-16.9,18.5-25.6
				c3.9-4.8,13.6-10.2,18-14.6c5.9-5.8,8.8-12.5,9.4-20.7c0.4-5.1-0.8-10.2,0.2-15.3c2.2-11.5,9.3-24.4,21-28.5
				c5.2-1.8,11-1.7,16.4-0.3c5.3,1.4,10.4,3.9,15,6.9c8.8,5.7,14,14.3,15.4,24.7c1.9,13.8-4.7,26.2-12.1,37.4
				c-3,4.5-5.4,9.4-8.4,13.9c-1,1.5-2.4,2.6-4.1,3.2c-4.8,1.5-7.8-3.1-11.7-4.7c-9.8-4-11.9,5-12.3,7.4c-0.1,0.4,0,0.8,0.2,1.2
				c0.2,0.4,0.5,0.7,0.8,1.2c0,0,0,0,0,0.1c9.4,11.4,15.7,25.1,18.4,39.6c2.2,12-1.2,23.3-4.2,34.8c-3.3,12.8-15.6,40.7-9.8,51.7"/>
		</g>
	</g>
</g>
</svg>
