<?xml version="1.0" encoding="utf-8"?>
<!-- Generator: Adobe Illustrator 20.1.0, SVG Export Plug-In . SVG Version: 6.00 Build 0)  -->
<svg version="1.1" id="Layer_1" xmlns="http://www.w3.org/2000/svg" xmlns:xlink="http://www.w3.org/1999/xlink" x="0px" y="0px"
	 viewBox="0 0 299.5 295" style="enable-background:new 0 0 299.5 295;" xml:space="preserve">
<style type="text/css">
	.st0{fill:#DCE5E4;}
	.st1{clip-path:url(#SVGID_2_);}
	.st2{fill:#2BB7B8;}
	.st3{clip-path:url(#SVGID_2_);fill:#2BB7B8;}
</style>
<g>
	<circle class="st0" cx="140.4" cy="151.4" r="128.4"/>
	<g>
		<defs>
			<circle id="SVGID_1_" cx="140.4" cy="151.4" r="128.4"/>
		</defs>
		<clipPath id="SVGID_2_">
			<use xlink:href="#SVGID_1_"  style="overflow:visible;"/>
		</clipPath>
		<g class="st1">
			<path class="st2" d="M111.4,267.6c-3.3-5.1-6.4-10.3-9-15.8c-14.6-30-17.5-64.2-8.2-96.1c3.1-10.7,7.4-21.2,13.1-30.8
				c3.1-5.4,8.3-10.4,12-15.4c5-6.6,6.6-14.6,6-22.8c-0.4-5.1-2.3-10-2.1-15.1c0.5-11.7,5.6-25.5,16.5-31.3
				c4.9-2.6,10.6-3.3,16.1-2.8c5.5,0.6,10.9,2.3,15.9,4.6c9.5,4.4,16,12,18.9,22.1c3.9,13.4-0.8,26.6-6.5,38.7
				c-2.3,4.9-3.9,10.1-6.3,15c-0.8,1.6-2,3-3.6,3.7c-4.6,2.2-8.2-2-12.2-2.9c-10.3-2.5-11,6.7-11.1,9.2c0,0.4,0.1,0.8,0.3,1.2
				c0.3,0.4,0.6,0.6,0.9,1c0,0,0,0,0,0c11,9.8,18.2,22.6,23,36.5c5.1,14.7,2.9,31.1-1.7,45.6c-2,6.3-20.2,51-19.8,60.4"/>
		</g>
		<path class="st3" d="M160.9,241.4l-44.8,10.2c0,0-20,23.9-22.4,51.1c-0.6,24.5,20.5,88,22,110.1c0.4,5.2,3.1,10,7.4,12.9
			c5.8,4.1,12.9,7,16.1,6.6c9.7-1.1,17.1-53.1,20.9-96.8c1-11.9,3.5-23.5,6.8-35C175.4,271.6,160.9,241.4,160.9,241.4z"/>
	</g>
</g>
</svg>
